<?xml version="1.0" encoding="UTF-8"?>
<!DOCTYPE svg PUBLIC "-//W3C//DTD SVG 1.1//EN" "http://www.w3.org/Graphics/SVG/1.1/DTD/svg11.dtd">
<svg xmlns="http://www.w3.org/2000/svg" version="1.1" width="1600px" height="900px" style="shape-rendering:geometricPrecision; text-rendering:geometricPrecision; image-rendering:optimizeQuality; fill-rule:evenodd; clip-rule:evenodd" xmlns:xlink="http://www.w3.org/1999/xlink">
<g><path style="opacity:0.992" fill="#72c41c" d="M 769.5,12.5 C 909.168,8.62086 1025.67,57.9542 1119,160.5C 1208.07,267.4 1241.4,390.067 1219,528.5C 1193.56,648.639 1130.39,743.139 1029.5,812C 914.463,884.605 790.129,901.272 656.5,862C 561.891,829.924 486.058,772.758 429,690.5C 361.264,585.282 340.43,471.116 366.5,348C 397.042,229.585 463.708,138.085 566.5,73.5C 628.781,36.977 696.447,16.6437 769.5,12.5 Z M 720.5,241.5 C 734.755,242.482 749.088,242.816 763.5,242.5C 763.167,300.171 763.5,357.837 764.5,415.5C 785.142,393.18 810.142,379.68 839.5,375C 890.114,367.671 933.948,381.505 971,416.5C 1011.32,461.077 1022.15,512.244 1003.5,570C 988.869,607.269 963.536,634.603 927.5,652C 873.263,673.728 821.93,668.394 773.5,636C 740.784,609.403 723.284,574.903 721,532.5C 720.5,435.501 720.333,338.501 720.5,241.5 Z M 587.5,246.5 C 630.766,268.622 659.433,303.122 673.5,350C 681.489,375.789 689.155,401.622 696.5,427.5C 679.489,424.808 662.489,421.974 645.5,419C 627.028,413.845 609.695,406.178 593.5,396C 584.4,388.903 575.9,381.069 568,372.5C 542.268,339.433 513.101,309.599 480.5,283C 494.114,283.756 507.448,286.256 520.5,290.5C 554.329,301.375 585.996,316.542 615.5,336C 636.378,354.545 656.211,374.045 675,394.5C 675.5,394.167 676,393.833 676.5,393.5C 663.359,366.552 649.693,339.885 635.5,313.5C 627.664,300.491 619.33,287.824 610.5,275.5C 602.576,265.955 594.909,256.288 587.5,246.5 Z"/></g>
<g><path style="opacity:0.982" fill="#72c41c" d="M 860.5,412.5 C 915.07,413.569 950.237,440.236 966,492.5C 974.808,530.925 966.808,565.258 942,595.5C 910.359,624.873 873.526,633.706 831.5,622C 777.517,599.586 754.017,559.086 761,500.5C 773.493,446.794 806.659,417.46 860.5,412.5 Z"/></g>
<g><path style="opacity:0.764" fill="#72c41c" d="M 1117.5,775.5 C 1127.5,775.5 1137.5,775.5 1147.5,775.5C 1147.5,778.167 1147.5,780.833 1147.5,783.5C 1143.83,783.5 1140.17,783.5 1136.5,783.5C 1136.5,793.167 1136.5,802.833 1136.5,812.5C 1133.17,812.5 1129.83,812.5 1126.5,812.5C 1126.5,802.833 1126.5,793.167 1126.5,783.5C 1123.5,783.5 1120.5,783.5 1117.5,783.5C 1117.5,780.833 1117.5,778.167 1117.5,775.5 Z"/></g>
<g><path style="opacity:0.801" fill="#72c41c" d="M 1150.5,775.5 C 1153.91,775.249 1157.24,775.583 1160.5,776.5C 1163.83,783.166 1167.66,789.499 1172,795.5C 1174.83,789.178 1178.16,783.178 1182,777.5C 1184.9,775.773 1188.07,775.107 1191.5,775.5C 1191.5,787.833 1191.5,800.167 1191.5,812.5C 1189.17,812.5 1186.83,812.5 1184.5,812.5C 1184.67,805.159 1184.5,797.826 1184,790.5C 1181.01,795.828 1178.01,801.161 1175,806.5C 1171.71,808.018 1168.87,807.351 1166.5,804.5C 1164.33,800.167 1162.17,795.833 1160,791.5C 1159.5,798.492 1159.33,805.492 1159.5,812.5C 1156.5,812.5 1153.5,812.5 1150.5,812.5C 1150.5,800.167 1150.5,787.833 1150.5,775.5 Z"/></g>
</svg>
