<?xml version="1.0" encoding="utf-8"?>
<!-- Generator: Adobe Illustrator 22.0.1, SVG Export Plug-In . SVG Version: 6.00 Build 0)  -->
<svg version="1.1" id="Layer_1" xmlns="http://www.w3.org/2000/svg" xmlns:xlink="http://www.w3.org/1999/xlink" x="0px" y="0px"
	 viewBox="0 0 640 480" style="enable-background:new 0 0 640 480;" xml:space="preserve">
<style type="text/css">
	.st0{fill:#0061D5;}
	.st1{fill:none;}
</style>
<g>
	<path class="st0" d="M607.4,362.6c7.3,10.2,5.8,23.4-2.9,30.7c-10.2,7.3-24.8,5.8-32.1-2.9l-51.1-65.7l-49.7,64.3
		c-7.3,10.2-21.9,10.2-32.1,2.9s-11.7-20.5-4.4-30.7l58.4-76l-58.4-76c-7.3-10.2-4.4-24.8,4.4-32.1c10.2-7.3,24.8-4.4,32.1,4.4
		l49.7,65.7l51.1-62.8c7.3-10.2,20.5-11.7,32.1-4.4c10.2,7.3,10.2,21.9,2.9,32.1l-57,74.5L607.4,362.6z M341.5,353.8
		c-38,0-68.7-29.2-68.7-67.2c0-36.5,30.7-67.2,68.7-67.2s68.7,30.7,68.7,67.2C408.7,324.6,378,353.8,341.5,353.8z M139.9,353.8
		c-38,0-68.7-29.2-68.7-67.2c0-36.5,30.7-67.2,68.7-67.2s68.7,30.7,68.7,67.2C208.6,324.6,177.9,353.8,139.9,353.8z M341.5,175.6
		c-42.4,0-80.3,23.4-99.3,58.4c-19-35.1-57-58.4-100.8-58.4c-26.3,0-49.7,8.8-68.7,21.9V104c0-11.7-10.2-21.9-21.9-21.9
		c-13.1,0-23.4,10.2-23.4,21.9v184.1c1.5,61.4,51.1,109.6,112.5,109.6c43.8,0,81.8-24.8,100.8-59.9c19,35.1,57,59.9,99.3,59.9
		c62.8,0,113.9-49.7,113.9-112.5C455.5,225.2,404.3,175.6,341.5,175.6z"/>
</g>
<rect x="2.8" y="59.7" class="st1" width="634.3" height="360.5"/>
</svg>
