<svg version="1.1" id="svg2" xmlns="http://www.w3.org/2000/svg" x="0" y="0" viewBox="0 0 465.3 415.7" style="enable-background:new 0 0 465.3 415.7" xml:space="preserve"><style>.st0{fill:#2496ed}.st1{fill:#2854a1}</style><g id="g10" transform="matrix(1.33333 0 0 -1.33333 0 102.333)"><g id="g12"><g id="g14"><g id="g20" transform="translate(136.81 21.84)"><path id="path22" class="st0" d="M-85.2-228.9c-.9-2.2-2.2-4.1-3.8-5.7-1.6-1.6-3.5-2.9-5.7-3.9s-4.5-1.4-7-1.4-4.9.5-7.1 1.4c-2.2 1-4.1 2.2-5.7 3.9-1.6 1.6-2.9 3.5-3.8 5.7-.9 2.2-1.4 4.5-1.4 7s.5 4.8 1.4 7c.9 2.2 2.2 4.1 3.8 5.7 1.6 1.6 3.5 2.9 5.7 3.9s4.5 1.4 7.1 1.4c2.5 0 4.8-.5 7-1.4 2.2-1 4.1-2.3 5.7-3.9 1.6-1.6 2.9-3.5 3.8-5.7.9-2.2 1.4-4.5 1.4-6.9s-.5-4.9-1.4-7.1m6.7 60.2c-1.5 0-2.8-.5-3.8-1.5s-1.5-2.3-1.5-3.8v-25.6c-5.2 4.2-11.2 6.3-18 6.3-7.9 0-14.7-2.8-20.3-8.4-5.6-5.6-8.4-12.4-8.4-20.3s2.8-14.7 8.4-20.3c5.6-5.6 12.4-8.4 20.3-8.4s14.6 2.8 20.3 8.4c5.6 5.5 8.4 12.3 8.4 20.3v47.9c0 1.5-.5 2.8-1.6 3.8-1 1.1-2.3 1.6-3.8 1.6"/></g><g id="g24" transform="translate(170.392 21.84)"><path id="path26" class="st0" d="M-55.9-228.9c-.9-2.2-2.2-4.1-3.8-5.7-1.6-1.6-3.5-2.9-5.7-3.9s-4.5-1.4-7-1.4-4.9.5-7.1 1.4c-2.2 1-4.1 2.2-5.7 3.9-1.6 1.6-2.9 3.5-3.8 5.7-.9 2.2-1.4 4.5-1.4 7s.5 4.8 1.4 7c.9 2.2 2.2 4.1 3.8 5.7 1.6 1.6 3.5 2.9 5.7 3.9s4.5 1.4 7.1 1.4c2.5 0 4.8-.5 7-1.4 2.2-1 4.1-2.3 5.7-3.9 1.6-1.6 2.9-3.5 3.8-5.7.9-2.2 1.4-4.5 1.4-6.9s-.5-4.9-1.4-7.1m3.7 27.3c-5.7 5.6-12.4 8.4-20.3 8.4s-14.7-2.8-20.3-8.4c-5.6-5.6-8.4-12.4-8.4-20.3s2.8-14.7 8.4-20.3c5.6-5.6 12.4-8.4 20.3-8.4s14.6 2.8 20.3 8.4c5.6 5.5 8.4 12.3 8.4 20.3 0 4-.7 7.6-2.1 11-1.4 3.4-3.5 6.5-6.3 9.3"/></g><g id="g28" transform="translate(235.666 38.01)"><path id="path30" class="st0" d="M1.1-214.7c0 .7-.1 1.4-.4 2-.3.7-.7 1.2-1.2 1.7s-1 .9-1.7 1.2c-.6.3-1.4.4-2.1.4-1.1 0-2-.3-2.9-.8l-30.6-19.9v39.9c0 1.5-.5 2.8-1.6 3.8-1 1-2.3 1.6-3.8 1.6s-2.8-.5-3.8-1.6c-1-1-1.6-2.3-1.6-3.8v-71.2c0-1.5.5-2.7 1.6-3.8 1-1.1 2.3-1.6 3.8-1.6s2.7.5 3.8 1.6c1 1.1 1.6 2.3 1.6 3.8v18.5l6.2 4.1 23.7-26.6c1-.9 2.1-1.4 3.6-1.4.7 0 1.5.1 2.1.4.6.3 1.2.7 1.7 1.2s.9 1.1 1.2 1.7c.3.6.4 1.3.4 2 0 1.4-.5 2.6-1.5 3.7l-22 24.8 21.5 14c1.3.9 2 2.3 2 4.3"/></g><g id="g32" transform="translate(188.24 32.337)"><path id="path34" class="st0" d="M-40.3-219.7c1.6 1.6 3.6 2.9 5.7 3.8s4.5 1.4 7 1.4c2.3 0 4.3-.4 6.2-1.1 1.9-.8 3.7-1.9 5.5-3.3 1-.8 2.2-1.2 3.5-1.2 1.5 0 2.8.5 3.8 1.5s1.5 2.3 1.5 3.8c0 1.6-.6 3-1.8 4-5.3 4.6-11.5 7-18.7 7-7.9 0-14.7-2.8-20.3-8.4-5.6-5.6-8.4-12.4-8.4-20.3s2.8-14.7 8.4-20.3c5.6-5.6 12.4-8.4 20.3-8.4 7.2 0 13.4 2.3 18.7 7 1.1 1.1 1.7 2.4 1.7 3.9s-.5 2.8-1.5 3.8-2.3 1.5-3.8 1.5c-1.3 0-2.4-.4-3.4-1.1-1.7-1.5-3.5-2.6-5.4-3.3-1.9-.7-4-1.1-6.2-1.1-2.5 0-4.8.5-7 1.4-2.2.9-4.1 2.2-5.7 3.8-1.6 1.6-2.9 3.5-3.9 5.7-.9 2.2-1.4 4.5-1.4 7s.5 4.8 1.4 7c.9 2.4 2.1 4.3 3.8 5.9"/></g><g id="g36" transform="translate(292.45 38.94)"><path id="path38" class="st0" d="M50.7-213.9c-1 .9-2.2 1.6-3.6 2.2-1.5.5-3 .9-4.8 1.1-1.7.2-3.3.3-4.8.3-3.4 0-6.6-.5-9.6-1.6s-5.8-2.7-8.3-4.7v1c0 1.5-.5 2.7-1.6 3.8-1 1-2.3 1.6-3.8 1.6s-2.8-.5-3.8-1.6c-1-1-1.6-2.3-1.6-3.8v-46.7c0-1.5.5-2.7 1.6-3.8 1-1 2.3-1.6 3.8-1.6s2.7.5 3.8 1.6c1 1 1.6 2.3 1.6 3.8v23.4c0 2.5.5 4.8 1.4 7 .9 2.2 2.2 4.1 3.8 5.7 1.6 1.6 3.5 2.9 5.7 3.8 2.2.9 4.5 1.4 7 1.4s4.9-.4 7-1.3c.9-.4 1.6-.6 2.3-.6.7 0 1.4.1 2.1.4.6.3 1.2.7 1.7 1.2s.9 1.1 1.2 1.7c.3.6.4 1.3.4 2.1-.1 1.5-.5 2.6-1.5 3.6"/></g><g id="g40" transform="translate(242.484 28.35)"><path id="path42" class="st0" d="M7.1-223.2c.5 1.9 1.4 3.6 2.5 5.1 1.1 1.6 2.5 2.9 4 4s3.2 2 5.1 2.6c1.8.6 3.7.9 5.7.9s3.8-.3 5.7-.9c1.8-.6 3.5-1.5 5-2.6s2.9-2.4 4-4 2-3.3 2.6-5.1H7.1zm43.8 5.7c-1.4 3.4-3.5 6.5-6.3 9.2-5.7 5.6-12.4 8.4-20.3 8.4S9.6-202.7 4-208.3c-5.6-5.6-8.4-12.4-8.4-20.3s2.8-14.7 8.4-20.3c5.6-5.6 12.4-8.4 20.3-8.4 7.2 0 13.5 2.3 18.7 7l.2.2c.5.4.9.8 1.2 1.3 1.7 2.5 1.1 6-1.4 7.6-2.1 1.4-4.8 1.1-6.6-.6-.2-.2-.7-.6-.8-.7 0 0-.1 0-.1-.1-1.6-1.3-3.3-2.3-5.2-3-1.9-.7-3.9-1-6.2-1-2 0-3.9.3-5.7.9-1.8.6-3.5 1.5-5 2.6s-2.8 2.4-4 4c-1.1 1.6-2 3.3-2.6 5.1h40.6c1.5 0 2.8.5 3.8 1.5s1.6 2.3 1.6 3.8c.2 4.2-.5 7.8-1.9 11.2"/></g><g id="g212" transform="translate(282.695 10.834)"><path id="path214" class="st0" d="M42.2-238.5c-1.7 0-2.9 1.3-2.9 2.9 0 1.6 1.2 2.9 2.9 2.9 1.6 0 2.8-1.3 2.8-3 0-1.5-1.2-2.8-2.8-2.8m0 6.7c-2.1 0-3.8-1.6-3.8-3.7s1.7-3.7 3.8-3.7c2.1 0 3.8 1.6 3.8 3.7-.1 2-1.7 3.7-3.8 3.7"/></g><g id="g216" transform="translate(282.6 12.489)"><path id="path218" class="st0" d="M42.1-237h-.4v1.1h.5c.5 0 .8-.2.8-.6 0-.4-.4-.5-.9-.5m1-.3c.4.2.8.5.8.9s-.2.7-.4.8c-.3.2-.6.3-1.3.3-.6 0-1.1 0-1.4-.1v-3.7h.9v1.5h.4c.5 0 .7-.2.8-.6.1-.4.2-.8.3-.9h.9c-.1.1-.2.4-.3.9-.1.5-.3.8-.7.9"/></g></g></g></g><g id="g12_1_" transform="matrix(1.33333 0 0 -1.33333 -17.809 137.627)"><g id="g14_1_"><g id="g24_1_" transform="translate(156.083 86.08)"><path id="path26_1_" class="st1" d="M184-57.9c-.8.6-7.8 5.9-22.5 5.9-3.7 0-7.6-.3-11.6-1-2.9 19.6-19 29.1-19.8 29.6l-4 2.3-2.6-3.8c-.2-.3-4.8-7-7-16.5-2.6-11.2-1-21.7 4.6-30.7-5.5-3.1-13.8-4.3-17.9-4.7v25.4c0 3.3-2.7 6-6 6h-28v56.6c0 3.3-2.7 6-6 6H36c-3.3 0-6-2.7-6-6v-25.3h-61.9c-3.3 0-6-2.7-6-6v-25.3h-27.7c-3.3 0-6-2.7-6-6V-77H-79c-2.9 0-5.7-1.2-7.8-3.2-2.1-2.1-3.2-4.9-3.1-7.8.2-16.4 3.1-32.1 8.4-45.5 6.3-15.9 15.5-27.6 27.3-34.9 13.6-8.3 35.8-13.1 60.8-13.1 11.7 0 23.4 1.1 33.7 3.1 16.3 3.2 31.2 8.5 44.1 16 11.3 6.5 21.4 14.8 30.1 24.6 14.4 16.3 23 34.6 29.4 50.7.9 0 1.7-.1 2.5-.1 15.8 0 25.5 6.3 30.9 11.6 5.8 5.7 7.9 11.5 8.1 12.1l1.1 3.3-2.5 2.3z"/></g><g id="g28_1_" transform="translate(39.169 89.882)"><path id="path30_1_" class="st0" d="M76.7-54.5H53.3c-1.5 0-2.7-1.2-2.7-2.7v-20.7c0-1.5 1.2-2.7 2.7-2.7h23.3c1.5 0 2.7 1.2 2.7 2.7v20.7c0 1.6-1.1 2.7-2.6 2.7"/></g><g id="g32_1_" transform="translate(29.685 79.376)"><path id="path34_1_" class="st1" d="M68-64.1c0-.4-.3-.7-.7-.7H66c-.4 0-.7.3-.7.7v14.2c0 .4.3.7.7.7h1.3c.4 0 .7-.3.7-.7v-14.2z"/></g><g id="g36_1_" transform="translate(33.762 79.376)"><path id="path38_1_" class="st1" d="M71.7-64.1c0-.4-.3-.7-.7-.7h-1.3c-.4 0-.7.3-.7.7v14.2c0 .4.3.7.7.7H71c.4 0 .7-.3.7-.7v-14.2z"/></g><g id="g40_1_" transform="translate(37.84 79.376)"><path id="path42_1_" class="st1" d="M75.5-64.1c0-.4-.3-.7-.7-.7h-1.3c-.4 0-.7.3-.7.7v14.2c0 .4.3.7.7.7h1.3c.4 0 .7-.3.7-.7v-14.2z"/></g><g id="g44" transform="translate(56.702 89.882)"><path id="path46" class="st0" d="M92.8-54.5H69.4c-1.5 0-2.7-1.2-2.7-2.7v-20.7c0-1.5 1.2-2.7 2.7-2.7h23.3c1.5 0 2.7 1.2 2.7 2.7v20.7c0 1.6-1.1 2.7-2.6 2.7"/></g><g id="g48" transform="translate(47.218 79.376)"><path id="path50" class="st1" d="M84.1-64.1c0-.4-.3-.7-.7-.7h-1.3c-.4 0-.7.3-.7.7v14.2c0 .4.3.7.7.7h1.3c.4 0 .7-.3.7-.7v-14.2z"/></g><g id="g52" transform="translate(51.295 79.376)"><path id="path54" class="st1" d="M87.8-64.1c0-.4-.3-.7-.7-.7h-1.3c-.4 0-.7.3-.7.7v14.2c0 .4.3.7.7.7h1.3c.4 0 .7-.3.7-.7v-14.2z"/></g><g id="g56" transform="translate(55.373 79.376)"><path id="path58" class="st1" d="M91.6-64.1c0-.4-.3-.7-.7-.7h-1.3c-.4 0-.7.3-.7.7v14.2c0 .4.3.7.7.7h1.3c.4 0 .7-.3.7-.7v-14.2z"/></g><g id="g60" transform="translate(74.506 89.882)"><path id="path62" class="st0" d="M109.1-54.5H85.8c-1.5 0-2.7-1.2-2.7-2.7v-20.7c0-1.5 1.2-2.7 2.7-2.7h23.3c1.5 0 2.7 1.2 2.7 2.7v20.7c0 1.6-1.2 2.7-2.7 2.7"/></g><g id="g64" transform="translate(65.022 79.376)"><path id="path66" class="st1" d="M100.4-64.1c0-.4-.3-.7-.7-.7h-1.3c-.4 0-.7.3-.7.7v14.2c0 .4.3.7.7.7h1.3c.4 0 .7-.3.7-.7v-14.2z"/></g><g id="g68" transform="translate(69.1 79.376)"><path id="path70" class="st1" d="M104.2-64.1c0-.4-.3-.7-.7-.7h-1.3c-.4 0-.7.3-.7.7v14.2c0 .4.3.7.7.7h1.3c.4 0 .7-.3.7-.7v-14.2z"/></g><g id="g72" transform="translate(73.177 79.376)"><path id="path74" class="st1" d="M107.9-64.1c0-.4-.3-.7-.7-.7H106c-.4 0-.7.3-.7.7v14.2c0 .4.3.7.7.7h1.3c.4 0 .7-.3.7-.7v-14.2z"/></g><g id="g76" transform="translate(92.098 89.882)"><path id="path78" class="st0" d="M125.3-54.5H102c-1.5 0-2.7-1.2-2.7-2.7v-20.7c0-1.5 1.2-2.7 2.7-2.7h23.3c1.5 0 2.7 1.2 2.7 2.7v20.7c0 1.6-1.2 2.7-2.7 2.7"/></g><g id="g80" transform="translate(82.613 79.376)"><path id="path82" class="st1" d="M116.6-64.1c0-.4-.3-.7-.7-.7h-1.3c-.4 0-.7.3-.7.7v14.2c0 .4.3.7.7.7h1.3c.4 0 .7-.3.7-.7v-14.2z"/></g><g id="g84" transform="translate(86.691 79.376)"><path id="path86" class="st1" d="M120.3-64.1c0-.4-.3-.7-.7-.7h-1.3c-.4 0-.7.3-.7.7v14.2c0 .4.3.7.7.7h1.3c.4 0 .7-.3.7-.7v-14.2z"/></g><g id="g88" transform="translate(90.769 79.376)"><path id="path90" class="st1" d="M124.1-64.1c0-.4-.3-.7-.7-.7h-1.3c-.4 0-.7.3-.7.7v14.2c0 .4.3.7.7.7h1.3c.4 0 .7-.3.7-.7v-14.2z"/></g><g id="g92" transform="translate(56.702 106.192)"><path id="path94" class="st0" d="M92.8-39.5H69.4c-1.5 0-2.7-1.2-2.7-2.7v-20.7c0-1.5 1.2-2.7 2.7-2.7h23.3c1.5 0 2.7 1.2 2.7 2.7v20.7c0 1.5-1.1 2.7-2.6 2.7"/></g><g id="g96" transform="translate(47.218 95.686)"><path id="path98" class="st1" d="M84.1-49.1c0-.4-.3-.7-.7-.7h-1.3c-.4 0-.7.3-.7.7v14.2c0 .4.3.7.7.7h1.3c.4 0 .7-.3.7-.7v-14.2z"/></g><g id="g100" transform="translate(51.295 95.686)"><path id="path102" class="st1" d="M87.8-49.1c0-.4-.3-.7-.7-.7h-1.3c-.4 0-.7.3-.7.7v14.2c0 .4.3.7.7.7h1.3c.4 0 .7-.3.7-.7v-14.2z"/></g><g id="g104" transform="translate(55.373 95.686)"><path id="path106" class="st1" d="M91.6-49.1c0-.4-.3-.7-.7-.7h-1.3c-.4 0-.7.3-.7.7v14.2c0 .4.3.7.7.7h1.3c.4 0 .7-.3.7-.7v-14.2z"/></g><g id="g108" transform="translate(74.506 106.192)"><path id="path110" class="st0" d="M109.1-39.5H85.8c-1.5 0-2.7-1.2-2.7-2.7v-20.7c0-1.5 1.2-2.7 2.7-2.7h23.3c1.5 0 2.7 1.2 2.7 2.7v20.7c0 1.5-1.2 2.7-2.7 2.7"/></g><g id="g112" transform="translate(65.022 95.686)"><path id="path114" class="st1" d="M100.4-49.1c0-.4-.3-.7-.7-.7h-1.3c-.4 0-.7.3-.7.7v14.2c0 .4.3.7.7.7h1.3c.4 0 .7-.3.7-.7v-14.2z"/></g><g id="g116" transform="translate(69.1 95.686)"><path id="path118" class="st1" d="M104.2-49.1c0-.4-.3-.7-.7-.7h-1.3c-.4 0-.7.3-.7.7v14.2c0 .4.3.7.7.7h1.3c.4 0 .7-.3.7-.7v-14.2z"/></g><g id="g120" transform="translate(73.177 95.686)"><path id="path122" class="st1" d="M107.9-49.1c0-.4-.3-.7-.7-.7H106c-.4 0-.7.3-.7.7v14.2c0 .4.3.7.7.7h1.3c.4 0 .7-.3.7-.7v-14.2z"/></g><g id="g124" transform="translate(92.098 106.192)"><path id="path126" class="st0" d="M125.3-39.5H102c-1.5 0-2.7-1.2-2.7-2.7v-20.7c0-1.5 1.2-2.7 2.7-2.7h23.3c1.5 0 2.7 1.2 2.7 2.7v20.7c0 1.5-1.2 2.7-2.7 2.7"/></g><g id="g128" transform="translate(82.613 95.686)"><path id="path130" class="st1" d="M116.6-49.1c0-.4-.3-.7-.7-.7h-1.3c-.4 0-.7.3-.7.7v14.2c0 .4.3.7.7.7h1.3c.4 0 .7-.3.7-.7v-14.2z"/></g><g id="g132" transform="translate(86.691 95.686)"><path id="path134" class="st1" d="M120.3-49.1c0-.4-.3-.7-.7-.7h-1.3c-.4 0-.7.3-.7.7v14.2c0 .4.3.7.7.7h1.3c.4 0 .7-.3.7-.7v-14.2z"/></g><g id="g136" transform="translate(90.769 95.686)"><path id="path138" class="st1" d="M124.1-49.1c0-.4-.3-.7-.7-.7h-1.3c-.4 0-.7.3-.7.7v14.2c0 .4.3.7.7.7h1.3c.4 0 .7-.3.7-.7v-14.2z"/></g><g id="g140" transform="translate(92.098 122.502)"><path id="path142" class="st0" d="M125.3-24.5H102c-1.5 0-2.7-1.2-2.7-2.7v-20.7c0-1.5 1.2-2.7 2.7-2.7h23.3c1.5 0 2.7 1.2 2.7 2.7v20.7c0 1.5-1.2 2.7-2.7 2.7"/></g><g id="g144" transform="translate(82.613 111.995)"><path id="path146" class="st1" d="M116.6-34.1c0-.4-.3-.7-.7-.7h-1.3c-.4 0-.7.3-.7.7v14.2c0 .4.3.7.7.7h1.3c.4 0 .7-.3.7-.7v-14.2z"/></g><g id="g148" transform="translate(86.691 111.995)"><path id="path150" class="st1" d="M120.3-34.1c0-.4-.3-.7-.7-.7h-1.3c-.4 0-.7.3-.7.7v14.2c0 .4.3.7.7.7h1.3c.4 0 .7-.3.7-.7v-14.2z"/></g><g id="g152" transform="translate(90.769 111.995)"><path id="path154" class="st1" d="M124.1-34.1c0-.4-.3-.7-.7-.7h-1.3c-.4 0-.7.3-.7.7v14.2c0 .4.3.7.7.7h1.3c.4 0 .7-.3.7-.7v-14.2z"/></g><g id="g156" transform="translate(109.844 89.882)"><path id="path158" class="st0" d="M141.6-54.5h-23.3c-1.5 0-2.7-1.2-2.7-2.7v-20.7c0-1.5 1.2-2.7 2.7-2.7h23.3c1.5 0 2.7 1.2 2.7 2.7v20.7c0 1.6-1.2 2.7-2.7 2.7"/></g><g id="g160" transform="translate(100.36 79.376)"><path id="path162" class="st1" d="M132.9-64.1c0-.4-.3-.7-.7-.7h-1.3c-.4 0-.7.3-.7.7v14.2c0 .4.3.7.7.7h1.3c.4 0 .7-.3.7-.7v-14.2z"/></g><g id="g164" transform="translate(104.438 79.376)"><path id="path166" class="st1" d="M136.6-64.1c0-.4-.3-.7-.7-.7h-1.3c-.4 0-.7.3-.7.7v14.2c0 .4.3.7.7.7h1.3c.4 0 .7-.3.7-.7v-14.2z"/></g><g id="g168" transform="translate(108.516 79.376)"><path id="path170" class="st1" d="M140.4-64.1c0-.4-.3-.7-.7-.7h-1.3c-.4 0-.7.3-.7.7v14.2c0 .4.3.7.7.7h1.3c.4 0 .7-.3.7-.7v-14.2z"/></g><g id="g172" transform="translate(15.956 70.656)"><path id="path174" class="st0" d="M55.4-72.1c0 3.1 2.5 5.6 5.5 5.6h180.3c1.3 0 19.2.9 27 8.8-17.3 21-.4 45.3-.4 45.3s17.7-10.2 17.7-31.2c24.9 5.8 35.6-2.8 35.6-2.8s-7.9-23.2-40.1-20.1c-12-31.1-33.9-78.7-101.2-91.7-29.1-5.6-69.6-3.7-91 9.4-23.5 14.5-33.2 47.1-33.4 76.7"/></g><g id="g176" transform="translate(59.59 44.897)"><path id="path178" d="M95.4-95.8c5 0 9.1 4.1 9.1 9.1s-4.1 9.1-9.1 9.1-9.1-4.1-9.1-9.1 4.1-9.1 9.1-9.1" style="fill-rule:evenodd;clip-rule:evenodd;fill:#fff"/></g><g id="g180" transform="translate(59.986 51.111)"><path id="path182" class="st1" d="M95.8-90.1c-.2.8.1 1.6.5 2.2-.8.2-1.6.2-2.4.1-2.8-.6-4.5-3.4-3.9-6.2.6-2.8 3.4-4.6 6.2-3.9 2.8.6 4.5 3.4 3.9 6.2 0 .1-.1.2-.1.3-.3-.3-.7-.5-1.1-.6-1.4-.4-2.8.5-3.1 1.9"/></g><g id="g184" transform="translate(51.202 39.623)"><path id="path186" d="M87.7-100.6c-11.2-6.7-24-10.2-37.1-10.2-1.7 0-4 .1-6.4.3 2.8-2.7 5.9-5.2 9.2-7.2 14-8.6 36.3-12.4 58.2-12.4 4.5 0 9 .2 13.4.5-15.5 5.1-28.6 15.5-37.3 29" style="fill:#fff"/></g><g id="g188" transform="translate(31.859 34.317)"><path id="path190" class="st1" d="M70-105.5c-3.6 0-7.7.3-10.9.8-1.4.2-3 5.4-1.6 5.2 3-.4 9.1-1 12.5-1 12.2 0 24.1 3.3 34.5 9.5 1.2.7 2.7.3 3.4-.9.7-1.2.3-2.7-.9-3.4-11.1-6.7-24-10.2-37-10.2"/></g></g></g></svg>