<svg xmlns="http://www.w3.org/2000/svg" viewBox="0 0 1259.67742 319.35484"><defs><style>.a{fill:#d5ff00;}.b{fill:#191823;}.c{fill:none;}</style></defs><title>docusign_logo-freelogovectors.net</title><path class="a" d="M289.99692,275.38462H40V524.61538H289.99692Z" transform="translate(-10.16129 -240.32258)"/><path class="b" d="M255.26154,465.77846H74.74461v24.2123H255.26154Zm-90.25846-13.8923,17.21538-17.05846,52.24615-52.08923-17.41845-17.36308L177.14154,405.16V306.53846H152.86462V405.16l-39.91385-39.78461L95.53231,382.72924l52.24616,52.09846ZM366.15077,325.89539h63.23076c40.13538,0,65.9723,32.27077,65.9723,76.47692,0,24.30461-8.20616,45.66462-23.96309,58.87385-11.15077,9.22154-25.63385,14.45538-44.54769,14.45538H366.15074V325.90462Zm58.58769,123.6c28.57847,0,39.72924-17.38153,39.72924-47.15077s-13.01538-50.4923-38.88-50.4923H396.62156v97.63384H424.7385Zm75.14769-27.42461c0-32.04,22.92-56.76924,56.30767-56.76924,33.39693,0,56.30768,24.70155,56.30768,56.76923s-22.91075,56.77847-56.30768,56.77847c-33.38769,0-56.30767-24.71077-56.30767-56.76923Zm83.63078,0c0-20.95384-9.8677-35.1877-27.32307-35.1877-17.44615,0-27.32307,14.23385-27.32307,35.1877s9.66462,34.98461,27.32307,34.98461C573.86157,457.05538,583.51693,443.02461,583.51693,422.07077Zm34.88307,0c0-32.04,21.01843-56.76924,53.80614-56.76924,27.93232,0,45.18458,16.11693,48.95078,39.36923H693.2246c-1.90155-9.42462-9.25844-16.56-19.76306-16.56-17.22459,0-26.06767,13.20923-26.06767,33.94154,0,20.71385,8.19693,33.92308,25.63385,33.92308,11.55691,0,19.75384-6.07386,21.62771-18.21231h27.52618C720.28928,460.6,702.42777,478.82153,673.637,478.82153c-34.03382,0-55.25539-24.71077-55.25539-56.76922Zm179.37233,53.6123v-12.5723h-.64615c-7.35689,9.84-15.76615,15.50769-30.88616,15.50769-23.96308,0-37.38464-15.3046-37.38464-38.76922v-71.64h28.36614v66.82154c0,12.5723,5.66767,19.46768,17.86151,19.46768,13.45846,0,21.63694-10.06154,21.63694-24.30461V368.18155h28.57847V475.65539H797.77226ZM964.51691,326.56h28.57846v26.64923H964.51691Zm0,41.67692h28.57846V475.71077H964.51691V368.23692Zm68.82462,110.59386c2.3077,6.69231,8.40926,11.92615,21.62772,11.92615,16.1723,0,23.97231-7.74462,23.97231-22.4123V456.62155h-.64615c-6.30461,7.12614-14.51076,12.5723-28.1631,12.5723-23.97231,0-47.50151-18.85846-47.50151-51.33231,0-32.48308,19.32925-52.58769,46.65232-52.58769,13.45846,0,23.32616,5.23385,29.83387,14.25231h.40614V368.20924h27.52617v99.29537c0,15.07384-4.83694,25.3477-12.81231,32.67693-9.04618,8.38155-22.91079,12.16617-38.88,12.16617-29.42773,0-47.49228-12.57231-50.4369-33.52616h28.42156ZM1080.4,417.24309c0-15.71077-8.40926-29.13231-25.63385-29.13231-14.50153,0-24.16612,11.32615-24.16612,29.33539,0,18.01845,9.66459,28.8923,24.36923,28.8923,18.07385,0,25.43074-13.2,25.43074-29.12308Zm66.8954-34.36616h.63693c7.35689-11.52,17.22459-17.60308,31.93845-17.60308,22.27386,0,37.19076,16.76308,37.19076,40.21847v70.19077h-28.57846v-66c0-11.52922-6.72-19.69846-18.71078-19.69846-12.6092,0-21.85842,10.06154-21.85842,24.70154v60.96922H1119.3354V368.18154h27.93231v14.67693Zm-247.90156,2.52922c-22.27387-4.82769-32.77849-8.38154-32.77849-20.52,0-10.68,10.70773-17.60308,27.11074-17.60308,14.97232,0,26.38155,6.99692,28.73537,20.95384h29.32618c-2.98152-29.10461-24.63692-45.04615-57.83077-45.04615-33.18462,0-57.56308,15.30461-57.56308,44.84307,0,31.21847,24.58156,38.32616,51.48926,44.4,22.92,5.24308,37.2,8.17846,37.2,22.84616,0,13.82768-13.66157,19.27384-29.22462,19.27384-21.4246,0-31.73541-7.13539-33.83078-25.14463h-29.843c1.04307,31.63385,24.16619,49.64308,64.92,49.64308,33.83077,0,58.41233-16.96615,58.41233-47.35384,0-32.26153-25.21848-39.6-56.10464-46.2923h-.01845Zm329.25236,2.65846A11.33051,11.33051,0,1,1,1240,376.74769,11.34385,11.34385,0,0,1,1228.64619,388.06461Zm0-20.88a9.56344,9.56344,0,1,0,9.58149,9.56308A9.58675,9.58675,0,0,0,1228.64619,367.18461Z" transform="translate(-10.16129 -240.32258)"/><path class="b" d="M1224.75084,370.92308h3.72c1.53232,0,2.58461,0,3.6093.83077a3.53572,3.53572,0,0,1,1.28314,2.86154,3.20912,3.20912,0,0,1-2.27994,3.20308l2.5846,4.7077h-2.48305l-2.30769-4.30154h-1.94768v4.29231h-2.15079V370.94156l-.02774-.01846Zm2.15078,1.86461v3.62769h.76609c.74763,0,1.03384,0,1.44005-.02769a1.80442,1.80442,0,0,0,2.04923-1.79077,1.61983,1.61983,0,0,0-.92313-1.56,5.351,5.351,0,0,0-2.30769-.24924Z" transform="translate(-10.16129 -240.32258)"/><rect class="c" width="1259.67742" height="319.35484"/></svg>