<?xml version="1.0" encoding="UTF-8" standalone="no"?><svg xmlns="http://www.w3.org/2000/svg" xml:space="preserve" id="svg1" width="770" height="137.58842" version="1.1" viewBox="0 0 770 137.58842"><path id="path46" fill="#0766ff" d="M677.27753 135.30359h25.62081V93.85142l35.75181 41.45217H770l-41.62077-47.77307 35.55365-41.4235h-28.52792L702.89834 84.2862V0l-25.62081 3.35817Zm-59.08777-91.48141c-28.44361 0-48.19545 19.13131-48.19545 46.86922 0 27.73792 19.75184 46.86922 48.19545 46.86922 28.44275 0 48.19546-19.1313 48.19546-46.86922 0-27.73791-19.75271-46.86922-48.19546-46.86922Zm0 71.89818c-13.17802 0-22.20701-10.18662-22.20701-25.02896 0-14.84234 9.02899-25.02896 22.20701-25.02896 13.17716 0 22.20702 10.18662 22.20702 25.02896 0 14.84234-9.02986 25.02896-22.20702 25.02896Zm-104.1232-71.89818c-28.44275 0-48.19545 19.13131-48.19545 46.86922 0 27.73792 19.7527 46.86922 48.19545 46.86922 28.44361 0 48.19545-19.1313 48.19545-46.86922 0-27.73791-19.75184-46.86922-48.19545-46.86922Zm0 71.89818c-13.17716 0-22.20702-10.18662-22.20702-25.02896 0-14.84234 9.02986-25.02896 22.20702-25.02896 13.17803 0 22.20702 10.18662 22.20702 25.02896 0 14.84234-9.02899 25.02896-22.20702 25.02896Zm-98.05608-71.89818c-11.85093 0-21.67079 4.65573-27.82222 13.17716V0l-25.64949 3.32949v131.94542h22.74325l.45106-13.76988c6.06713 10.27092 16.93077 16.05559 30.2774 16.05559 24.32412 0 42.12919-19.7527 42.12919-46.86922 0-27.11738-17.72077-46.86922-42.12919-46.86922Zm-6.06626 71.89818c-13.17803 0-22.20702-10.18662-22.20702-25.02896 0-14.84234 9.02899-25.02896 22.20702-25.02896 13.17716 0 22.20702 10.18662 22.20702 25.02896 0 14.84234-9.02986 25.02896-22.20702 25.02896Zm-98.76178 1.15676c-13.60041 0-23.36378-6.3209-26.69327-17.21235h63.1221c.6214-3.32949 1.04464-7.28038 1.04464-9.93285 0-28.69739-16.05646-45.90974-43.03218-45.90974-27.22949 0-46.07921 19.13131-46.07921 46.86922 0 28.10467 19.7527 46.86922 49.07062 46.86922 15.18042 0 29.93846-5.07897 39.1656-13.51611l-9.22714-16.25287c-8.94469 6.17924-17.72077 9.08548-27.37116 9.08548Zm-5.72818-53.13363c11.8518 0 19.41376 7.19521 19.41376 18.3413v.08517h-40.91508c2.45519-11.82311 10.10145-18.42647 21.50132-18.42647Zm-86.03481 73.84494c13.26233 0 26.24221-5.07897 35.38418-13.88286l-10.01715-16.8456c-7.1109 5.5309-15.18041 8.52144-22.82755 8.52144-14.22181 0-23.70272-9.93284-23.70272-24.6622 0-14.72935 9.48091-24.6622 23.70272-24.6622 7.02574 0 14.67287 2.53949 20.88079 7.0266l10.18661-17.21322c-8.23985-7.44898-20.99376-12.0204-33.63556-12.0204-27.82222 0-47.48975 19.41376-47.48975 46.86922.02781 27.37116 19.69534 46.86922 47.51843 46.86922Zm-81.46426-91.48141-.45106 13.88374c-6.06713-10.35609-16.93077-16.14077-30.2774-16.14077-24.40842 0-42.12919 19.75271-42.12919 46.86922 0 27.11739 17.83375 46.86922 42.12919 46.86922 13.34663 0 24.23808-5.78467 30.2774-16.05559l.45106 13.76988h22.74324v-89.1957Zm-24.6622 69.61334c-13.17716 0-22.20702-10.18662-22.20702-25.02896 0-14.84234 9.02986-25.02896 22.20702-25.02896 13.17803 0 22.20702 10.18662 22.20702 25.02896 0 14.84234-9.05767 25.02896-22.20702 25.02896Zm-50.11441-69.4456H40.12507v-7.61932c0-11.39987 4.45844-15.77314 16.02778-15.77314 3.58326 0 6.4895.0843 8.15468.25378V3.58152c-3.16088-.87517-10.86364-1.74948-15.32207-1.74948-23.56194 0-34.42557 11.11742-34.42557 35.13041v9.28363H0v21.55867h14.55989v67.46842h25.59299v-67.4406h19.07568Z"/></svg>