<svg xmlns="http://www.w3.org/2000/svg" viewBox="0 0 1268.75676 581.08108"><title>google_analytics_logo-freelogovectors.net</title><path d="M710.84839,157.32374a29.61783,29.61783,0,0,1,22.4605,2.32983,28.6573,28.6573,0,0,1,14.89522,24.21453q.0393,87.11335.01318,174.21373c.013,11.45282-7.77483,22.25119-18.41615,26.26951a28.65668,28.65668,0,0,1-39.17525-26.23024q-.01953-86.387-.013-172.774c-.20947-12.38213,8.27217-24.50249,20.23552-28.02338Z" transform="translate(-5.62162 -109.45946)" style="fill:#f9ab00"/><path d="M633.2571,243.1217c9.58107-2.40836,20.44495.32722,27.38207,7.47377a28.82411,28.82411,0,0,1,8.7172,21.00777q.01971,39.28639.01314,78.586c-.02624,4.80364.26175,9.68581-.99481,14.37165a28.69771,28.69771,0,0,1-18.99206,20.301c-9.45022,3.01044-20.85067,1.24345-27.90558-6.07326-7.48684-7.42145-9.82977-18.41615-10.02609-28.59934-.03927-23.5601,0-47.12019-.01315-70.68027-.02612-5.53664-.27485-11.20413,1.41363-16.5444,2.82722-9.50258,10.64131-17.55226,20.40565-19.84283m-80.87655,86.74041a29.46023,29.46023,0,0,1,25.36636,3.61252,28.60365,28.60365,0,0,1,12.43449,25.86375c-.41885,14.43709-13.50775,26.89775-27.89248,26.88466a28.65586,28.65586,0,0,1-25.79836-14.1884,28.8971,28.8971,0,0,1,15.89-42.17253Z" transform="translate(-5.62162 -109.45946)" style="fill:#e37400"/><path d="M46.3492,500.424a68.88211,68.88211,0,0,1,51.25628-29.52863,64.92527,64.92527,0,0,1,51.50494,18.4554c-4.38477,4.411-8.75651,8.86124-13.23294,13.18057-17.081-17.14651-47.22482-17.46063-64.85562-.99473-19.123,16.58366-21.50516,48.29817-5.03925,67.52578,13.979,17.801,41.00762,22.59151,60.62792,11.72771,6.479-3.78268,12.46069-8.95282,15.73293-15.81145,2.30366-4.54187,3.35076-9.55491,4.22774-14.52873H102.93269V532.12544q30.903-.01965,61.79286-.0131c2.657,15.86378.01306,32.94483-8.66491,46.62278a59.417,59.417,0,0,1-35.44482,24.50253c-16.6753,3.86121-34.86891,2.15963-49.99972-6.11255-18.49467-9.712-32.15952-28.32448-35.20927-49.07045A65.84454,65.84454,0,0,1,46.3492,500.424m406.05805-24.581h19.96067V602.80565H452.40725V475.843m619.36856,6.8979c5.07843-1.54449,11.19094.41885,13.48151,5.41884,3.39007,6.37426-.95547,15.56272-8.46851,15.86378-5.96863,1.0602-12.14657-3.822-12.25122-9.92144a10.86631,10.86631,0,0,1,7.23822-11.36118m-415.8225,1.02093c5.95545-.11779,11.91094-.05232,17.87949-.06547q22.36242,59.56774,44.84267,119.09626-8.73689.01959-17.4868.01306c-3.73036-10.77216-7.70936-21.45274-11.30886-32.26418-16.53133-.288-33.06263-.06546-49.58086-.11783-3.84815,10.79837-7.77483,21.57058-11.59678,32.382H611.20223c14.90828-39.68562,29.99986-79.30582,44.75108-119.04385m-10.44495,72.25095q19.437-.01971,38.848-.01314c-6.36125-17.91872-12.958-35.772-19.35855-53.67767-6.64916,17.84019-13.04967,35.772-19.48941,53.69081m251.9228-72.31642c5.13084,0,10.26176-.01306,15.39252.01315q-.01965,59.548,0,119.08311-7.69614.01959-15.39252.01306V483.69633M1021.776,496.45805c5.13092-.01306,10.24866-.01306,15.3795.01314q0,12.42786.0131,24.85588c6.6361,0,13.28522-.01311,19.94752,0-.0131,4.64655-.0393,9.30625.09172,13.96587-6.68851.24873-13.36392.03926-20.03924.11779.37963,15.44493-.87686,31.0077.7853,46.3872,1.24347,7.5785,10.4189,9.20152,16.4266,6.25651q2.61127,7.02879,4.98688,14.14913c-9.47637,2.61783-20.87679,3.74342-29.18823-2.55231-5.6152-4.01832-8.56021-10.99474-8.41626-17.801q.01967-23.22629.01311-46.43956-7.20543-.01959-14.37163,0c-.03931-4.69888-.03931-9.38474-.0131-14.08366,4.77741,0,9.56809-.01311,14.37162,0,.02621-8.28528,0-16.5837.01311-24.869M204.21484,519.74328a46.60072,46.60072,0,0,1,27.77477,1.466,42.11284,42.11284,0,0,1,24.65951,24.725c5.10472,13.93971,3.07591,30.4841-6.02088,42.32962-9.79054,13.07583-27.38207,19.18838-43.272,16.02084a42.6228,42.6228,0,0,1-29.68574-21.20405c-9.76433-17.39521-6.11251-41.57044,9.43712-54.43688a42.15772,42.15772,0,0,1,17.10724-8.9005m6.25655,16.55753A24.32082,24.32082,0,0,0,193.351,551.83733c-4.73822,12.09421.19633,27.7224,12.23817,33.4292,9.33238,4.93447,21.58364,2.04187,28.2197-6.00786,8.54715-9.99993,8.33769-26.3742-.73294-35.96837a23.46908,23.46908,0,0,0-22.60458-6.98949m86.66184-16.4266c13.36377-3.59949,28.48152-1.03407,39.39769,7.657,17.89257,13.52085,21.2826,41.45264,8.33764,59.463-9.29313,13.45542-26.68834,20.20932-42.69612,17.53916a42.77246,42.77246,0,0,1-29.89509-19.26687c-10.89-16.924-8.377-41.46578,6.58374-55.20917a43.04163,43.04163,0,0,1,18.27214-10.18315m5.2748,16.79305c-12.30359,3.49476-19.4632,17.38215-17.10721,29.59411,1.41363,9.46331,8.40312,18.16741,17.814,20.58891,8.78269,2.644,18.79574-1.034,24.424-8.12826,8.32457-10.28789,7.74865-26.97628-1.93717-36.204a23.31647,23.31647,0,0,0-23.19362-5.85076m85.92886-16.32186c12.04184-4.22775,26.87158-2.04188,35.56266,7.84026.01314-2.40836.0262-4.79056.05236-7.18586,6.11251,0,12.212-.01306,18.31141.01314q0,39.60056-.0131,79.21423c-.06543,13.87424-4.84284,28.96578-16.95011,36.92388-15.86382,10.10462-38.91346,8.96589-52.66994-4.34554a47.03965,47.03965,0,0,1-10.301-14.72505c5.61514-2.38216,11.25651-4.68582,16.87164-7.068,2.23823,4.30627,4.93455,8.58634,9.05752,11.335,9.58115,6.924,25.09155,5.09161,31.66218-5.144,4.18843-6.58373,4.17533-14.68574,4.03137-22.19882-7.90573,9.20152-21.30878,11.97641-32.7223,8.86119-18.56014-4.48949-32.35589-22.72237-32.13336-41.74059-.40579-18.259,11.81931-36.06,29.24064-41.77986m7.01569,16.4528a24.63147,24.63147,0,0,0-14.73812,14.01824c-4.699,10.87686-1.74085,24.85583,7.85337,32.12022,7.68316,6.15181,19.6203,6.45287,27.225.0131,12.38212-9.856,12.68314-30.71969,1.28269-41.43954a21.64472,21.64472,0,0,0-21.623-4.712m94.27961-1.50526c11.178-16.83235,36.32179-22.369,53.25892-11.16486,9.60724,6.034,15.32713,16.37427,18.93969,26.81926-19.21455,8.11515-38.56,15.91611-57.78764,23.9789,3.48158,6.78006,10.09152,12.0549,17.86635,12.63081,9.59417,1.40053,18.96589-3.91358,24.09673-11.85857,5.07856,3.28533,10.07846,6.68847,15.11775,10.02613-6.38745,9.33242-16.29578,16.41354-27.49991,18.48157-13.71718,2.81415-28.82182-1.09947-38.91334-10.92923-15.4057-14.712-17.14651-40.73276-5.07855-57.984m25.43183,1.96334c-8.95283,3.75652-14.411,13.246-14.35857,22.814,12.89262-5.26174,25.78523-10.53658,38.57306-16.06012-4.65962-8.25911-15.94227-10.8638-24.21449-6.75389m228.1532-4.3979c5.99476-8.835,16.43971-14.71192,27.225-14.21457,8.089-.19633,16.55753,2.25134,22.3298,8.16748,5.62822,5.92929,8.14128,14.28008,8.14128,22.34283-.02621,17.87949,0,35.759-.0131,53.65153-5.10464,0-10.20936-.02616-15.314.03927-.18334-15.73289.01311-31.46577-.07861-47.19866-.11775-6.12561-.73289-12.958-5.27472-17.55231-5.18332-5.22243-13.31158-5.82455-20.144-4.411-9.90825,2.95812-15.8768,13.49473-15.94223,23.44229-.41894,15.20938-.06551,30.44488-.17024,45.66732q-7.69615.01959-15.39253.01306,0-40.73925,0-81.47858,7.36252-.01967,14.72506,0c.013,3.84815,0,7.6832-.09172,11.53131m69.4761,1.767a36.346,36.346,0,0,1,25.746-15.57579c9.60731-.9424,19.90822-.68065,28.52068,4.2146A29.36522,29.36522,0,0,1,881.76366,542.662c1.25649,4.64655.92927,9.48947.95547,14.25387q-.01953,22.93179,0,45.8767-7.38205.01959-14.73808.01306,0-5.73291-.03938-11.46588c-5.51039,7.89263-14.21457,14.20151-24.17523,14.10987-10.68045.81151-22.01552-3.36386-28.46843-12.14653-5.27488-6.74079-6.09941-16.09941-3.91358-24.1622,3.12827-10.7198,13.979-17.18574,24.51555-18.78259,10.82458-1.37433,22.3298-.95551,32.26426,4.07068-.03931-6.40051-2.02877-13.20677-7.55234-16.98946-10.28789-8.48164-26.89775-5.17014-34.2014,5.6675-4.64648-2.72249-9.14915-5.65444-13.71718-8.48165m25.98151,29.14909c-6.23035,1.97644-12.72241,7.09418-12.31658,14.28-.20946,5.90308,4.89517,10.34025,9.97377,12.30359,14.424,5.03925,31.8061-7.36907,31.40026-22.70931-8.52083-5.4319-19.424-6.45284-29.05745-3.87431M1095.28341,546.484c4.555-14.26693,17.57859-25.48416,32.48675-27.43436,7.59164-.77228,15.54966-.75918,22.69633,2.25126a37.68147,37.68147,0,0,1,20.79826,21.0732q-7.1466,3.02357-14.33241,5.98165c-2.46072-4.96068-5.62822-9.92143-10.69355-12.55232-8.36393-4.37166-19.47643-3.75648-26.80628,2.43456-14.77738,11.636-14.35852,37.53906,1.06028,48.46833,6.75386,5.18321,16.17791,5.52353,23.93964,2.59158,6.12561-2.38215,10.301-7.85336,13.23289-13.53391,4.63346,2.04187,9.29311,4.01827,13.95277,6.02088a37.18483,37.18483,0,0,1-26.50509,22.76168c-12.73551,2.53925-26.98938.49734-37.0809-8.18055-14.38481-11.767-18.18055-32.70932-12.74869-49.882m90.86345-18.93965c6.96332-6.92406,17.2119-9.25389,26.76689-8.8874,12.81412-.24869,26.5575,6.767,31.30879,19.18839-4.63361,1.85864-9.28017,3.70415-13.90052,5.57586-5.66753-10.94237-21.58356-14.1753-31.30871-6.89782-3.233,2.0942-4.48958,7.00255-1.87179,10.06536,3.65186,4.18847,9.51568,4.93455,14.58109,6.40051,9.60732,2.56542,20.34026,4.20153,27.64383,11.59677,5.99484,5.66754,7.22512,14.88212,5.01316,22.52605-3.39014,9.52875-12.90567,15.66746-22.5,17.60464a55.72651,55.72651,0,0,1-16.55754.32718,35.998,35.998,0,0,1-28.0495-22.94486c4.68578-1.98955,9.33242-4.10991,14.09681-5.92929,3.32448,8.20675,11.03389,15.07844,20.19614,15.2486,6.62308.36649,14.69885-1.78011,17.56541-8.40307,1.50526-5.91623-3.87435-10.53662-8.91364-12.26437-10.99466-3.74341-23.44225-4.34549-32.94483-11.67531-9.90833-7.212-10.05229-23.49461-1.12563-31.53124m-266.03263-6.178c5.69374-.06547,11.40041-.0262,17.10725-.06547,8.089,19.37161,15.96844,38.848,24.0967,58.2065,8.06275-19.30618,15.6937-38.78248,23.56008-58.18029,5.71994,0,11.42662-.02621,17.15958.02616q-25.56261,58.74316-51.09918,117.4732c-5.41884-.03926-10.83768,0-16.25644-.06547,6.34811-13.65175,12.61768-27.34276,18.91353-41.02072-11.07327-25.49722-22.3298-50.91595-33.48152-76.37391m147.48612-.03926q7.67661-.01967,15.3664.01306.01965,40.71966.0131,81.45246-7.69626.01959-15.3926.01306,0-40.73925.0131-81.47858Z" transform="translate(-5.62162 -109.45946)" style="fill:#5f6368"/><rect width="1268.75676" height="581.08108" style="fill:none"/></svg>