<svg xmlns="http://www.w3.org/2000/svg" xmlns:xlink="http://www.w3.org/1999/xlink" viewBox="0 0 1261.24324 495.94595"><defs><linearGradient id="a" x1="342.93472" y1="1022.88729" x2="260.89327" y2="1107.4943" gradientTransform="translate(0 -726.72)" gradientUnits="userSpaceOnUse"><stop offset="0.18" stop-color="#0052cc"/><stop offset="1" stop-color="#2684ff"/></linearGradient><linearGradient id="b" x1="252.94708" y1="1119.51192" x2="158.07795" y2="1211.75976" xlink:href="#a"/></defs><title>jira_software_logo-freelogovectors.net</title><path d="M425.74233,199.77646H232.76922a87.11716,87.11716,0,0,0,87.00523,87.00522H355.4689v34.579a87.11716,87.11716,0,0,0,87.0052,87.00523V216.50823A16.43313,16.43313,0,0,0,425.74233,199.77646Z" transform="translate(-9.37838 -152.02703)" style="fill:#2684ff"/><path d="M330.37122,295.70529H137.39813a87.11715,87.11715,0,0,0,87.00521,87.00522h35.69445v34.579a87.11715,87.11715,0,0,0,87.00522,87.0052V312.43706A16.7794,16.7794,0,0,0,330.37122,295.70529Z" transform="translate(-9.37838 -152.02703)" style="fill:url(#a)"/><path d="M235.00011,391.63411H42.027a87.11715,87.11715,0,0,0,87.00521,87.00521h35.69444v34.579a87.11715,87.11715,0,0,0,87.0052,87.00523V408.36589A17.15515,17.15515,0,0,0,235.00011,391.63411Z" transform="translate(-9.37838 -152.02703)" style="fill:url(#b)"/><path d="M903.03608,562.59261q-18.80611-.18806-37.54954.094c1.50449-82.40212,1.69255-165.21171,0-247.61383h40.84061q.047,18.05386.15672,36.17042c.03135,3.69854,1.2224,7.42842,2.82092,4.07466,10.75083-22.7554,31.939-37.863,56.293-42.50181,8.80753-1.66121,20.436-2.41346,29.30619-1.28509l-.15672,40.68389c-27.0808-3.103-48.3944-2.82091-70.27218,14.16728-11.97322,9.27768-17.77177,26.61065-17.99118,41.154-.7209,51.65413-.06269,103.40229-.15672,155.1191C905.23013,562.624,904.13311,562.624,903.03608,562.59261Z" transform="translate(-9.37838 -152.02703)" style="fill:#253858"/><path d="M765.438,273.91876c-15.07624-6.36273-16.7061-25.20019-12.75682-38.39581,2.16271-7.2717,11.78517-14.26131,18.99418-15.70311,7.9926-1.59852,16.64341-1.06568,23.66436,3.197,13.57174,8.212,15.7031,23.60167,11.06426,37.5182-2.41345,7.24035-12.03591,13.94787-19.0882,15.95385C778.94708,278.80835,773.2739,277.30386,765.438,273.91876Z" transform="translate(-9.37838 -152.02703)" style="fill:#253858"/><path d="M796.71885,562.59261q-19.32327-.047-38.64656-.18806l-.06269-247.11234,41.93764-.18806V562.624C798.85021,562.624,797.78453,562.59261,796.71885,562.59261Z" transform="translate(-9.37838 -152.02703)" style="fill:#253858"/><path d="M590.29041,564.12844a163.17742,163.17742,0,0,1-33.47488-7.58513l-.12538-42.18838c22.59868,8.24335,40.872,10.18664,64.8811,6.51945,10.34336-1.56717,22.09718-13.85384,26.45393-22.66137,2.78957-5.67317,6.018-18.71208,6.018-25.01213-.25075-78.8603.37612-157.72061-.25075-236.51822l43.75556.34478c-.37613,76.63491-.12538,153.26982-.18807,229.90474-.03134,44.163-22.12852,94.56341-72.65428,97.19626C613.26521,564.78666,601.69945,565.16278,590.29041,564.12844Z" transform="translate(-9.37838 -152.02703)" style="fill:#253858"/><path d="M1100.06147,567.23145c-41.81226-3.16569-71.99607-39.71224-81.3051-78.39015-9.18365-38.20775-7.58513-79.04836,6.018-115.72029a107.94541,107.94541,0,0,1,12.75681-23.41361,95.29175,95.29175,0,0,1,34.38385-29.745c15.92251-8.02394,35.48087-9.99859,53.15861-9.37171,30.59128,1.03433,54.56908,18.74342,68.83038,44.69586,1.75524,3.197,2.85226-.37612,2.78957-4.04332l.03135-36.10773H1237.973V562.6553L1196.098,562.624q.37611-18.1479.47015-36.26446c0-4.41944-.68956-9.24634-2.6642-5.26571-13.66578,27.20618-39.55553,42.00032-68.83038,45.981C1118.33474,567.9837,1106.863,567.79564,1100.06147,567.23145Zm9.40306-38.96c9.309,1.66121,22.00315,1.7239,31.24949-.56418,31.751-7.52245,53.34668-34.97937,55.13326-67.01245,1.88061-34.41519,3.6045-80.86629-30.08978-101.459-17.27029-10.50008-36.35849-12.75681-56.293-9.215-18.8688,3.35375-37.92567,17.36431-45.38542,35.60624-13.03891,31.87636-14.418,77.92.59552,109.45158A60.19509,60.19509,0,0,0,1109.46453,528.27145Z" transform="translate(-9.37838 -152.02703)" style="fill:#253858"/><rect width="1261.24324" height="495.94595" style="fill:none"/></svg>