<svg xmlns="http://www.w3.org/2000/svg" xmlns:xlink="http://www.w3.org/1999/xlink" version="1.1" width="1200" height="675" style="shape-rendering:geometricPrecision; text-rendering:geometricPrecision; image-rendering:optimizeQuality; fill-rule:evenodd; clip-rule:evenodd">
<g><path style="opacity:0.725" fill="#505050" d="M 286.5,139.5 C 279.833,140.833 273.167,140.833 266.5,139.5C 273.167,138.167 279.833,138.167 286.5,139.5 Z"/></g>
<g><path style="opacity:0.431" fill="#747474" d="M 261.5,139.5 C 259.538,141.017 257.205,141.684 254.5,141.5C 252.631,141.493 250.964,141.16 249.5,140.5C 253.452,139.728 257.452,139.395 261.5,139.5 Z"/></g>
<g><path style="opacity:1" fill="#020202" d="M 261.5,139.5 C 263.167,139.5 264.833,139.5 266.5,139.5C 273.167,140.833 279.833,140.833 286.5,139.5C 287.167,139.5 287.833,139.5 288.5,139.5C 290.843,140.941 293.343,142.274 296,143.5C 297.478,144.092 298.644,144.092 299.5,143.5C 299.833,143.5 300.167,143.5 300.5,143.5C 301.486,145.408 303.152,146.408 305.5,146.5C 306.539,148.531 308.205,149.864 310.5,150.5C 313.583,153.908 317.249,156.575 321.5,158.5C 323.34,160.669 325.674,162.002 328.5,162.5C 329.13,165.705 331.13,167.371 334.5,167.5C 336.179,167.285 337.179,167.952 337.5,169.5C 342.757,174.473 348.757,178.473 355.5,181.5C 356.539,183.531 358.205,184.864 360.5,185.5C 362.658,187.993 365.324,189.66 368.5,190.5C 369.167,190.5 369.5,190.833 369.5,191.5C 369.973,192.906 370.973,193.573 372.5,193.5C 373.167,193.5 373.5,193.833 373.5,194.5C 374.401,196.727 376.067,197.727 378.5,197.5C 379.035,199.446 380.368,200.446 382.5,200.5C 384.909,201.701 386.909,203.367 388.5,205.5C 390.5,208.167 392.833,210.5 395.5,212.5C 396.338,212.842 396.672,213.508 396.5,214.5C 396.5,309.167 396.5,403.833 396.5,498.5C 396.5,499.167 396.5,499.833 396.5,500.5C 394.842,503.789 393.175,507.123 391.5,510.5C 391.5,511.167 391.167,511.5 390.5,511.5C 387.454,511.183 385.787,512.516 385.5,515.5C 385.167,515.5 384.833,515.5 384.5,515.5C 382.5,515.5 380.5,515.5 378.5,515.5C 378.5,516.5 378.5,517.5 378.5,518.5C 377.833,518.5 377.167,518.5 376.5,518.5C 375.378,517.844 374.045,517.511 372.5,517.5C 360.29,517.886 348.29,518.886 336.5,520.5C 332.818,520.335 329.152,520.501 325.5,521C 324.944,521.383 324.611,521.883 324.5,522.5C 322.5,522.5 320.5,522.5 318.5,522.5C 316.696,521.838 314.696,521.505 312.5,521.5C 308.883,521.398 305.55,522.065 302.5,523.5C 300.043,523.792 297.376,523.792 294.5,523.5C 281.83,523.849 269.163,524.349 256.5,525C 255.944,525.383 255.611,525.883 255.5,526.5C 253.833,526.5 252.167,526.5 250.5,526.5C 248.696,525.838 246.696,525.505 244.5,525.5C 240.883,525.398 237.55,526.065 234.5,527.5C 232.167,527.5 229.833,527.5 227.5,527.5C 214.83,527.849 202.163,528.349 189.5,529C 188.584,529.278 187.918,529.778 187.5,530.5C 184.833,530.5 182.167,530.5 179.5,530.5C 170.318,530.173 161.318,530.507 152.5,531.5C 149.918,531.025 147.918,531.692 146.5,533.5C 142.833,533.5 139.167,533.5 135.5,533.5C 133.696,532.838 131.696,532.505 129.5,532.5C 125.883,532.398 122.55,533.065 119.5,534.5C 113.984,535.228 108.317,535.228 102.5,534.5C 102.389,533.883 102.056,533.383 101.5,533C 98.0543,532.339 94.7209,531.505 91.5,530.5C 90.5637,529.026 89.2303,528.026 87.5,527.5C 86.5,527.167 85.8333,526.5 85.5,525.5C 85.5123,522.858 84.179,521.525 81.5,521.5C 81.5,521.167 81.5,520.833 81.5,520.5C 80.5977,518.659 79.2644,517.326 77.5,516.5C 77.5,516.167 77.5,515.833 77.5,515.5C 75.207,510.548 71.8736,506.548 67.5,503.5C 67.7148,501.821 67.0481,500.821 65.5,500.5C 64.4489,499.778 63.7822,498.778 63.5,497.5C 62.9202,495.251 61.5869,493.585 59.5,492.5C 59.2624,490.596 58.2624,489.262 56.5,488.5C 56.5,487.167 55.8333,486.5 54.5,486.5C 54.5,486.167 54.5,485.833 54.5,485.5C 53.8763,483.246 52.543,481.579 50.5,480.5C 46.8725,476.861 43.5392,472.861 40.5,468.5C 40.2876,465.288 38.6209,463.288 35.5,462.5C 35.5,462.167 35.5,461.833 35.5,461.5C 34.8645,459.205 33.5311,457.539 31.5,456.5C 30.3599,454.22 29.1932,451.886 28,449.5C 27.1841,448.177 26.0174,447.511 24.5,447.5C 24.5,447.167 24.5,446.833 24.5,446.5C 24.9382,446.565 25.2716,446.399 25.5,446C 23.5743,442.61 21.5743,439.443 19.5,436.5C 19.5,435.833 19.5,435.167 19.5,434.5C 18.1767,347.447 18.1767,260.447 19.5,173.5C 21.3116,169.212 23.6449,165.212 26.5,161.5C 27.911,159.461 29.911,158.461 32.5,158.5C 35.3852,158.357 37.7185,157.357 39.5,155.5C 42.1667,155.5 44.8333,155.5 47.5,155.5C 48.0968,156.139 48.9302,156.472 50,156.5C 53.3501,156.054 56.5167,155.388 59.5,154.5C 62.1667,154.5 64.8333,154.5 67.5,154.5C 73.8454,154.444 80.1787,154.11 86.5,153.5C 89.2695,153.471 91.6028,152.805 93.5,151.5C 96.5,151.5 99.5,151.5 102.5,151.5C 103.964,152.16 105.631,152.493 107.5,152.5C 110.486,152.618 113.152,151.952 115.5,150.5C 117.167,150.5 118.833,150.5 120.5,150.5C 127.514,150.499 134.514,150.166 141.5,149.5C 144.269,149.471 146.603,148.805 148.5,147.5C 151.5,147.5 154.5,147.5 157.5,147.5C 161.93,148.861 166.263,148.527 170.5,146.5C 171.833,146.5 173.167,146.5 174.5,146.5C 178.817,146.917 182.817,146.25 186.5,144.5C 189.167,144.5 191.833,144.5 194.5,144.5C 198.93,145.861 203.263,145.527 207.5,143.5C 209.5,143.5 211.5,143.5 213.5,143.5C 217.371,143.815 221.038,143.482 224.5,142.5C 229.944,143.108 234.944,142.442 239.5,140.5C 242.833,140.5 246.167,140.5 249.5,140.5C 250.964,141.16 252.631,141.493 254.5,141.5C 257.205,141.684 259.538,141.017 261.5,139.5 Z"/></g>
<g><path style="opacity:0.196" fill="#9a9a9a" d="M 239.5,140.5 C 234.944,142.442 229.944,143.108 224.5,142.5C 229.332,141.6 234.332,140.934 239.5,140.5 Z"/></g>
<g><path style="opacity:0.196" fill="#959595" d="M 224.5,142.5 C 221.038,143.482 217.371,143.815 213.5,143.5C 217.425,142.062 221.092,141.729 224.5,142.5 Z"/></g>
<g><path style="opacity:0.898" fill="#474747" d="M 288.5,139.5 C 292.787,139.476 296.453,140.81 299.5,143.5C 298.644,144.092 297.478,144.092 296,143.5C 293.343,142.274 290.843,140.941 288.5,139.5 Z"/></g>
<g><path style="opacity:0.055" fill="#989898" d="M 186.5,144.5 C 182.817,146.25 178.817,146.917 174.5,146.5C 178.267,145.205 182.267,144.539 186.5,144.5 Z"/></g>
<g><path style="opacity:0.651" fill="#686868" d="M 207.5,143.5 C 203.263,145.527 198.93,145.861 194.5,144.5C 198.785,143.705 203.119,143.372 207.5,143.5 Z"/></g>
<g><path style="opacity:0.055" fill="#878787" d="M 300.5,143.5 C 302.674,143.75 304.341,144.75 305.5,146.5C 303.152,146.408 301.486,145.408 300.5,143.5 Z"/></g>
<g><path style="opacity:0.651" fill="#5f5f5f" d="M 170.5,146.5 C 166.263,148.527 161.93,148.861 157.5,147.5C 161.785,146.705 166.119,146.372 170.5,146.5 Z"/></g>
<g><path style="opacity:0.357" fill="#606060" d="M 305.5,146.5 C 307.826,147.145 309.493,148.478 310.5,150.5C 308.205,149.864 306.539,148.531 305.5,146.5 Z"/></g>
<g><path style="opacity:0.651" fill="#6e6e6e" d="M 148.5,147.5 C 146.603,148.805 144.269,149.471 141.5,149.5C 134.514,150.166 127.514,150.499 120.5,150.5C 121.609,149.71 122.942,149.21 124.5,149C 132.519,148.657 140.519,148.157 148.5,147.5 Z"/></g>
<g><path style="opacity:0.725" fill="#646464" d="M 115.5,150.5 C 113.152,151.952 110.486,152.618 107.5,152.5C 105.631,152.493 103.964,152.16 102.5,151.5C 106.768,150.627 111.102,150.294 115.5,150.5 Z"/></g>
<g><path style="opacity:0.651" fill="#6c6c6c" d="M 93.5,151.5 C 91.6028,152.805 89.2695,153.471 86.5,153.5C 80.1787,154.11 73.8454,154.444 67.5,154.5C 68.6085,153.71 69.9419,153.21 71.5,153C 78.8516,152.636 86.1849,152.136 93.5,151.5 Z"/></g>
<g><path style="opacity:0.561" fill="#747474" d="M 310.5,150.5 C 311.922,150.709 313.255,151.209 314.5,152C 317.362,153.735 319.696,155.902 321.5,158.5C 317.249,156.575 313.583,153.908 310.5,150.5 Z"/></g>
<g><path style="opacity:0.196" fill="#8d8d8d" d="M 59.5,154.5 C 56.5167,155.388 53.3501,156.054 50,156.5C 48.9302,156.472 48.0968,156.139 47.5,155.5C 51.4659,154.838 55.4659,154.505 59.5,154.5 Z"/></g>
<g><path style="opacity:0.314" fill="#929292" d="M 39.5,155.5 C 37.7185,157.357 35.3852,158.357 32.5,158.5C 34.4605,156.887 36.7939,155.887 39.5,155.5 Z"/></g>
<g><path style="opacity:0.431" fill="#737373" d="M 321.5,158.5 C 324.331,159.079 326.664,160.412 328.5,162.5C 325.674,162.002 323.34,160.669 321.5,158.5 Z"/></g>
<g><path style="opacity:1" fill="#bfbfbf" d="M 258.5,162.5 C 267.657,161.342 276.991,161.176 286.5,162C 288.058,162.21 289.391,162.71 290.5,163.5C 279.86,162.625 269.194,162.291 258.5,162.5 Z"/></g>
<g><path style="opacity:1" fill="#fcfcfc" d="M 255.5,162.5 C 256.5,162.5 257.5,162.5 258.5,162.5C 269.194,162.291 279.86,162.625 290.5,163.5C 294.8,164.932 298.8,167.098 302.5,170C 316.018,180.03 329.351,190.197 342.5,200.5C 335.675,202.047 328.675,203.381 321.5,204.5C 298.145,205.487 274.811,206.821 251.5,208.5C 242.6,208.088 233.933,208.754 225.5,210.5C 217.483,210.501 209.483,210.834 201.5,211.5C 189.173,212.051 176.839,212.551 164.5,213C 162.292,213.191 160.292,213.691 158.5,214.5C 153.167,214.5 147.833,214.5 142.5,214.5C 135.159,214.334 127.826,214.5 120.5,215C 119.263,215.232 118.263,215.732 117.5,216.5C 110.11,216.764 102.777,216.43 95.5,215.5C 91.7301,214.736 88.3967,213.069 85.5,210.5C 74.7987,201.391 63.9654,192.391 53,183.5C 52.2571,181.559 52.4238,179.726 53.5,178C 57.3951,176.734 61.3951,176.234 65.5,176.5C 77.3871,176.315 89.0538,175.315 100.5,173.5C 104.234,173.677 107.901,173.344 111.5,172.5C 121.178,172.425 130.844,172.092 140.5,171.5C 145.731,171.556 150.731,170.889 155.5,169.5C 161.145,168.866 166.811,168.532 172.5,168.5C 179.84,168.277 187.173,167.944 194.5,167.5C 206.034,167.112 217.367,166.112 228.5,164.5C 230.833,164.5 233.167,164.5 235.5,164.5C 242.363,164.362 249.03,163.696 255.5,162.5 Z"/></g>
<g><path style="opacity:1" fill="#999999" d="M 255.5,162.5 C 249.03,163.696 242.363,164.362 235.5,164.5C 241.909,162.734 248.576,162.068 255.5,162.5 Z"/></g>
<g><path style="opacity:0.561" fill="#717171" d="M 26.5,161.5 C 23.6449,165.212 21.3116,169.212 19.5,173.5C 19.5,173.167 19.5,172.833 19.5,172.5C 20.0721,167.684 22.4055,164.017 26.5,161.5 Z"/></g>
<g><path style="opacity:0.965" fill="#525252" d="M 328.5,162.5 C 331.109,163.443 333.109,165.11 334.5,167.5C 331.13,167.371 329.13,165.705 328.5,162.5 Z"/></g>
<g><path style="opacity:1" fill="#a9a9a9" d="M 228.5,164.5 C 217.367,166.112 206.034,167.112 194.5,167.5C 194.5,167.167 194.5,166.833 194.5,166.5C 205.824,165.701 217.158,165.034 228.5,164.5 Z"/></g>
<g><path style="opacity:1" fill="#585858" d="M 194.5,166.5 C 194.5,166.833 194.5,167.167 194.5,167.5C 187.173,167.944 179.84,168.277 172.5,168.5C 179.629,167.185 186.963,166.518 194.5,166.5 Z"/></g>
<g><path style="opacity:1" fill="#5c5c5c" d="M 140.5,170.5 C 140.5,170.833 140.5,171.167 140.5,171.5C 130.844,172.092 121.178,172.425 111.5,172.5C 120.979,171.302 130.646,170.636 140.5,170.5 Z"/></g>
<g><path style="opacity:1" fill="#a1a1a1" d="M 155.5,169.5 C 150.731,170.889 145.731,171.556 140.5,171.5C 140.5,171.167 140.5,170.833 140.5,170.5C 145.482,169.947 150.482,169.613 155.5,169.5 Z"/></g>
<g><path style="opacity:0.965" fill="#595959" d="M 337.5,169.5 C 343.852,173.007 349.852,177.007 355.5,181.5C 348.757,178.473 342.757,174.473 337.5,169.5 Z"/></g>
<g><path style="opacity:1" fill="#949494" d="M 100.5,173.5 C 89.0538,175.315 77.3871,176.315 65.5,176.5C 76.9598,174.798 88.6265,173.798 100.5,173.5 Z"/></g>
<g><path style="opacity:0.196" fill="#a2a2a2" d="M 19.5,172.5 C 19.5,172.833 19.5,173.167 19.5,173.5C 18.1767,260.447 18.1767,347.447 19.5,434.5C 18.8826,434.389 18.3826,434.056 18,433.5C 17.6667,431.5 17.3333,429.5 17,427.5C 16.3333,344.167 16.3333,260.833 17,177.5C 17.0995,175.347 17.9328,173.681 19.5,172.5 Z"/></g>
<g><path style="opacity:0.11" fill="#727272" d="M 355.5,181.5 C 357.754,182.124 359.421,183.457 360.5,185.5C 358.205,184.864 356.539,183.531 355.5,181.5 Z"/></g>
<g><path style="opacity:0.314" fill="#7b7b7b" d="M 360.5,185.5 C 363.704,186.383 366.371,188.05 368.5,190.5C 365.324,189.66 362.658,187.993 360.5,185.5 Z"/></g>
<g><path style="opacity:0.055" fill="#919191" d="M 369.5,191.5 C 371.027,191.427 372.027,192.094 372.5,193.5C 370.973,193.573 369.973,192.906 369.5,191.5 Z"/></g>
<g><path style="opacity:0.11" fill="#858585" d="M 373.5,194.5 C 375.434,195.11 377.101,196.11 378.5,197.5C 376.067,197.727 374.401,196.727 373.5,194.5 Z"/></g>
<g><path style="opacity:0.055" fill="#8a8a8a" d="M 378.5,197.5 C 380.23,198.026 381.564,199.026 382.5,200.5C 380.368,200.446 379.035,199.446 378.5,197.5 Z"/></g>
<g><path style="opacity:1" fill="#bababa" d="M 342.5,200.5 C 343.404,201.209 343.737,202.209 343.5,203.5C 336.142,203.418 328.809,203.752 321.5,204.5C 328.675,203.381 335.675,202.047 342.5,200.5 Z"/></g>
<g><path style="opacity:0.11" fill="#878787" d="M 388.5,205.5 C 391.833,206.833 394.167,209.167 395.5,212.5C 392.833,210.5 390.5,208.167 388.5,205.5 Z"/></g>
<g><path style="opacity:1" fill="#5d5d5d" d="M 251.5,208.5 C 243.032,209.818 234.365,210.485 225.5,210.5C 233.933,208.754 242.6,208.088 251.5,208.5 Z"/></g>
<g><path style="opacity:1" fill="#606060" d="M 201.5,211.5 C 187.372,213.252 173.039,214.252 158.5,214.5C 160.292,213.691 162.292,213.191 164.5,213C 176.839,212.551 189.173,212.051 201.5,211.5 Z"/></g>
<g><path style="opacity:1" fill="#d1d1d1" d="M 142.5,214.5 C 139.375,215.479 136.042,215.813 132.5,215.5C 127.507,215.916 122.507,216.249 117.5,216.5C 118.263,215.732 119.263,215.232 120.5,215C 127.826,214.5 135.159,214.334 142.5,214.5 Z"/></g>
<g><path style="opacity:1" fill="#464646" d="M 95.5,215.5 C 102.777,216.43 110.11,216.764 117.5,216.5C 122.507,216.249 127.507,215.916 132.5,215.5C 125.736,217.035 118.736,217.702 111.5,217.5C 106.5,217.333 101.5,217.167 96.5,217C 95.944,216.617 95.6107,216.117 95.5,215.5 Z"/></g>
<g><path style="opacity:0.651" fill="#494949" d="M 396.5,214.5 C 397.222,214.918 397.722,215.584 398,216.5C 398.667,310.167 398.667,403.833 398,497.5C 397.617,498.056 397.117,498.389 396.5,498.5C 396.5,403.833 396.5,309.167 396.5,214.5 Z"/></g>
<g><path style="opacity:1" fill="#fdfdfd" d="M 336.5,491.5 C 328.493,491.334 320.493,491.5 312.5,492C 310.292,492.191 308.292,492.691 306.5,493.5C 290.517,494.536 274.517,495.203 258.5,495.5C 252.824,495.334 247.157,495.501 241.5,496C 239.618,496.198 237.952,496.698 236.5,497.5C 226.817,497.468 217.151,497.801 207.5,498.5C 195.31,498.511 183.31,499.177 171.5,500.5C 166.187,501.098 160.854,501.431 155.5,501.5C 145.326,501.839 135.326,502.506 125.5,503.5C 123.833,503.5 122.167,503.5 120.5,503.5C 114.046,503.768 107.713,503.102 101.5,501.5C 98.9203,499.911 97.587,497.578 97.5,494.5C 97.1778,412.478 97.5111,330.478 98.5,248.5C 100.19,246.658 102.19,245.325 104.5,244.5C 113.4,244.912 122.067,244.246 130.5,242.5C 131.167,242.5 131.833,242.5 132.5,242.5C 140.483,241.834 148.483,241.501 156.5,241.5C 168.719,241.307 180.719,240.307 192.5,238.5C 195.833,238.5 199.167,238.5 202.5,238.5C 210.812,237.76 219.146,237.427 227.5,237.5C 239.7,237.119 251.7,236.119 263.5,234.5C 266.833,234.5 270.167,234.5 273.5,234.5C 282.683,234.282 291.683,233.615 300.5,232.5C 311.172,232.667 321.839,232.5 332.5,232C 333.056,231.617 333.389,231.117 333.5,230.5C 343.509,230.156 353.509,229.989 363.5,230C 367,230.833 369.167,233 370,236.5C 370.667,317.5 370.667,398.5 370,479.5C 368.311,485.849 364.144,489.349 357.5,490C 350.321,490.171 343.321,490.671 336.5,491.5 Z"/></g>
<g><path style="opacity:1" fill="#c6c6c6" d="M 333.5,230.5 C 333.389,231.117 333.056,231.617 332.5,232C 321.839,232.5 311.172,232.667 300.5,232.5C 311.33,231.548 322.33,230.882 333.5,230.5 Z"/></g>
<g><path style="opacity:1" fill="#888888" d="M 300.5,232.5 C 291.683,233.615 282.683,234.282 273.5,234.5C 282.267,232.741 291.267,232.075 300.5,232.5 Z"/></g>
<g><path style="opacity:1" fill="#989898" d="M 263.5,234.5 C 251.7,236.119 239.7,237.119 227.5,237.5C 227.5,237.167 227.5,236.833 227.5,236.5C 239.423,235.473 251.423,234.806 263.5,234.5 Z"/></g>
<g><path style="opacity:1" fill="#4e4e4e" d="M 227.5,236.5 C 227.5,236.833 227.5,237.167 227.5,237.5C 219.146,237.427 210.812,237.76 202.5,238.5C 204.292,237.691 206.292,237.191 208.5,237C 214.825,236.5 221.158,236.334 227.5,236.5 Z"/></g>
<g><path style="opacity:1" fill="#949494" d="M 192.5,238.5 C 180.719,240.307 168.719,241.307 156.5,241.5C 156.5,241.167 156.5,240.833 156.5,240.5C 168.489,239.701 180.489,239.034 192.5,238.5 Z"/></g>
<g><path style="opacity:1" fill="#444444" d="M 156.5,240.5 C 156.5,240.833 156.5,241.167 156.5,241.5C 148.483,241.501 140.483,241.834 132.5,242.5C 140.264,240.785 148.264,240.118 156.5,240.5 Z"/></g>
<g><path style="opacity:1" fill="#b7b7b7" d="M 130.5,242.5 C 122.067,244.246 113.4,244.912 104.5,244.5C 112.968,243.182 121.635,242.515 130.5,242.5 Z"/></g>
<g><path style="opacity:1" fill="#020202" d="M 319.5,272.5 C 323.833,272.5 328.167,272.5 332.5,272.5C 332.632,275.57 332.299,278.57 331.5,281.5C 331.586,282.496 331.252,283.329 330.5,284C 327.688,285.549 324.688,286.382 321.5,286.5C 318.772,286.171 316.438,286.837 314.5,288.5C 313.501,344.998 313.168,401.664 313.5,458.5C 306.185,461.826 298.519,464.159 290.5,465.5C 285.414,465.374 280.414,464.707 275.5,463.5C 272.925,462.432 270.758,460.765 269,458.5C 265.951,454.957 263.118,451.291 260.5,447.5C 260.573,445.973 259.906,444.973 258.5,444.5C 254.194,436.876 249.527,429.543 244.5,422.5C 244.573,420.973 243.906,419.973 242.5,419.5C 229.438,398.387 216.105,377.387 202.5,356.5C 202.573,354.973 201.906,353.973 200.5,353.5C 197.682,348.36 194.682,343.36 191.5,338.5C 189.841,337.183 188.674,335.517 188,333.5C 187.601,333.728 187.435,334.062 187.5,334.5C 186.502,371.996 186.168,409.663 186.5,447.5C 187.5,447.5 188.5,447.5 189.5,447.5C 189.833,447.5 190.167,447.5 190.5,447.5C 194.542,449.237 198.876,450.237 203.5,450.5C 205.482,450.995 207.482,451.495 209.5,452C 210.059,452.725 210.392,453.558 210.5,454.5C 208.662,459.836 204.995,463.336 199.5,465C 191.547,466.223 183.547,466.723 175.5,466.5C 163.665,466.904 151.998,467.571 140.5,468.5C 139.252,467.666 138.585,466.333 138.5,464.5C 139.116,460.462 141.449,457.628 145.5,456C 149.473,454.972 153.473,454.139 157.5,453.5C 157.667,402.832 157.5,352.166 157,301.5C 152.263,300.531 147.43,300.197 142.5,300.5C 141.791,299.596 140.791,299.263 139.5,299.5C 139.616,296.14 139.949,292.807 140.5,289.5C 141.5,287.167 143.167,285.5 145.5,284.5C 148.01,284.073 150.343,283.407 152.5,282.5C 159.833,281.833 167.167,281.167 174.5,280.5C 185.831,280.093 197.164,279.759 208.5,279.5C 234.535,318.212 260.202,357.212 285.5,396.5C 285.56,397.043 285.893,397.376 286.5,397.5C 287.83,362.336 287.83,327.336 286.5,292.5C 281.936,291.784 277.269,291.117 272.5,290.5C 271.081,289.549 269.415,289.216 267.5,289.5C 267.5,287.167 267.5,284.833 267.5,282.5C 268.887,278.792 271.554,276.459 275.5,275.5C 284.358,275.392 293.025,274.725 301.5,273.5C 307.455,272.637 313.455,272.303 319.5,272.5 Z"/></g>
<g><path style="opacity:1" fill="#969696" d="M 319.5,272.5 C 323.97,271.514 328.637,271.181 333.5,271.5C 334.069,275.329 333.402,278.663 331.5,281.5C 332.299,278.57 332.632,275.57 332.5,272.5C 328.167,272.5 323.833,272.5 319.5,272.5 Z"/></g>
<g><path style="opacity:1" fill="#3a3a3a" d="M 301.5,273.5 C 293.025,274.725 284.358,275.392 275.5,275.5C 283.955,274.001 292.622,273.335 301.5,273.5 Z"/></g>
<g><path style="opacity:1" fill="#9e9e9e" d="M 208.5,279.5 C 197.164,279.759 185.831,280.093 174.5,280.5C 185.808,278.694 197.141,278.361 208.5,279.5 Z"/></g>
<g><path style="opacity:1" fill="#6c6c6c" d="M 152.5,282.5 C 150.343,283.407 148.01,284.073 145.5,284.5C 145.611,283.883 145.944,283.383 146.5,283C 148.473,282.505 150.473,282.338 152.5,282.5 Z"/></g>
<g><path style="opacity:1" fill="#575757" d="M 267.5,282.5 C 267.5,284.833 267.5,287.167 267.5,289.5C 269.415,289.216 271.081,289.549 272.5,290.5C 270.5,290.5 268.5,290.5 266.5,290.5C 266.194,287.615 266.527,284.948 267.5,282.5 Z"/></g>
<g><path style="opacity:1" fill="#6a6a6a" d="M 321.5,286.5 C 319.401,287.612 317.067,288.279 314.5,288.5C 316.438,286.837 318.772,286.171 321.5,286.5 Z"/></g>
<g><path style="opacity:1" fill="#3f3f3f" d="M 140.5,289.5 C 139.949,292.807 139.616,296.14 139.5,299.5C 140.791,299.263 141.791,299.596 142.5,300.5C 141.167,300.5 139.833,300.5 138.5,300.5C 138.335,297.482 138.502,294.482 139,291.5C 139.278,290.584 139.778,289.918 140.5,289.5 Z"/></g>
<g><path style="opacity:1" fill="#616161" d="M 286.5,292.5 C 287.83,327.336 287.83,362.336 286.5,397.5C 285.893,397.376 285.56,397.043 285.5,396.5C 286.498,362.004 286.832,327.337 286.5,292.5 Z"/></g>
<g><path style="opacity:0.431" fill="#7d7d7d" d="M 516.5,303.5 C 505.167,303.5 493.833,303.5 482.5,303.5C 481.833,303.5 481.167,303.5 480.5,303.5C 481.531,302.751 482.698,302.085 484,301.5C 494,302.833 504,302.833 514,301.5C 514.995,302.066 515.828,302.733 516.5,303.5 Z"/></g>
<g><path style="opacity:0.651" fill="#676767" d="M 877.5,301.5 C 877.5,308.833 877.5,316.167 877.5,323.5C 877.167,323.5 876.833,323.5 876.5,323.5C 875.835,320.016 875.501,316.349 875.5,312.5C 875.511,308.435 876.178,304.768 877.5,301.5 Z"/></g>
<g><path style="opacity:1" fill="#010101" d="M 877.5,301.5 C 884.833,301.5 892.167,301.5 899.5,301.5C 899.5,308.833 899.5,316.167 899.5,323.5C 892.167,323.5 884.833,323.5 877.5,323.5C 877.5,316.167 877.5,308.833 877.5,301.5 Z"/></g>
<g><path style="opacity:0.765" fill="#2a2a2a" d="M 480.5,303.5 C 481.167,303.5 481.833,303.5 482.5,303.5C 482.5,358.167 482.5,412.833 482.5,467.5C 481.833,467.5 481.167,467.5 480.5,467.5C 480.5,412.833 480.5,358.167 480.5,303.5 Z"/></g>
<g><path style="opacity:1" fill="#010101" d="M 482.5,303.5 C 493.833,303.5 505.167,303.5 516.5,303.5C 517.46,308.086 519.46,312.086 522.5,315.5C 523.338,315.842 523.672,316.508 523.5,317.5C 524.826,322.16 527.159,326.16 530.5,329.5C 531.11,330.391 531.443,331.391 531.5,332.5C 531.75,334.674 532.75,336.341 534.5,337.5C 535.404,338.209 535.737,339.209 535.5,340.5C 535.932,341.71 536.599,342.71 537.5,343.5C 538.39,346.948 540.057,349.948 542.5,352.5C 542.66,354.153 543.326,355.486 544.5,356.5C 544.229,358.38 544.896,359.713 546.5,360.5C 547.079,363.331 548.412,365.664 550.5,367.5C 550.5,367.833 550.5,368.167 550.5,368.5C 550.932,369.71 551.599,370.71 552.5,371.5C 552.229,373.38 552.896,374.713 554.5,375.5C 554.992,377.819 555.992,379.819 557.5,381.5C 558.401,382.29 559.068,383.29 559.5,384.5C 559.461,387.089 560.461,389.089 562.5,390.5C 563.602,395.575 565.936,399.909 569.5,403.5C 569.992,405.819 570.992,407.819 572.5,409.5C 572.285,411.179 572.952,412.179 574.5,412.5C 574.461,415.089 575.461,417.089 577.5,418.5C 577.896,421.721 579.229,424.388 581.5,426.5C 581.992,428.819 582.992,430.819 584.5,432.5C 585.338,432.842 585.672,433.508 585.5,434.5C 585.328,435.492 585.662,436.158 586.5,436.5C 586.56,437.043 586.893,437.376 587.5,437.5C 588.5,392.838 588.833,348.172 588.5,303.5C 594.5,303.5 600.5,303.5 606.5,303.5C 606.5,358.167 606.5,412.833 606.5,467.5C 597.5,467.5 588.5,467.5 579.5,467.5C 579.5,467.167 579.5,466.833 579.5,466.5C 579.938,466.565 580.272,466.399 580.5,466C 577.213,460.598 573.879,455.431 570.5,450.5C 568.139,442.778 564.473,435.778 559.5,429.5C 558.492,426.156 557.492,422.823 556.5,419.5C 555.5,419.5 554.5,419.5 553.5,419.5C 553.167,418.167 552.833,416.833 552.5,415.5C 552.068,414.29 551.401,413.29 550.5,412.5C 550.321,408.791 548.654,406.124 545.5,404.5C 545.5,404.167 545.5,403.833 545.5,403.5C 546.465,402.279 546.298,400.946 545,399.5C 544.329,398.748 543.496,398.414 542.5,398.5C 542.5,398.167 542.5,397.833 542.5,397.5C 542.938,397.565 543.272,397.399 543.5,397C 542.601,395.348 541.601,393.848 540.5,392.5C 538.123,387.143 535.79,381.81 533.5,376.5C 532.5,376.5 531.5,376.5 530.5,376.5C 530.5,376.167 530.5,375.833 530.5,375.5C 531.349,373.49 530.682,371.823 528.5,370.5C 528.008,368.181 527.008,366.181 525.5,364.5C 523.233,359.064 520.733,353.73 518,348.5C 517.292,347.619 516.458,346.953 515.5,346.5C 514.063,342.17 512.063,338.17 509.5,334.5C 508.476,329.402 506.143,325.069 502.5,321.5C 501.5,370.162 501.167,418.829 501.5,467.5C 495.167,467.5 488.833,467.5 482.5,467.5C 482.5,412.833 482.5,358.167 482.5,303.5 Z"/></g>
<g><path style="opacity:0.314" fill="#919191" d="M 588.5,302.5 C 588.5,302.833 588.5,303.167 588.5,303.5C 587.833,347.833 587.167,392.167 586.5,436.5C 585.662,436.158 585.328,435.492 585.5,434.5C 585.835,390.324 586.835,346.324 588.5,302.5 Z"/></g>
<g><path style="opacity:0.725" fill="#3c3c3c" d="M 588.5,303.5 C 588.833,348.172 588.5,392.838 587.5,437.5C 586.893,437.376 586.56,437.043 586.5,436.5C 587.167,392.167 587.833,347.833 588.5,303.5 Z"/></g>
<g><path style="opacity:0.859" fill="#212121" d="M 606.5,303.5 C 607.167,357.833 607.833,412.167 608.5,466.5C 608.5,466.833 608.5,467.167 608.5,467.5C 607.833,467.5 607.167,467.5 606.5,467.5C 606.5,412.833 606.5,358.167 606.5,303.5 Z"/></g>
<g><path style="opacity:0.431" fill="#717171" d="M 608.5,466.5 C 607.833,412.167 607.167,357.833 606.5,303.5C 600.5,303.5 594.5,303.5 588.5,303.5C 588.5,303.167 588.5,302.833 588.5,302.5C 594.775,302.383 601.442,302.383 608.5,302.5C 608.5,357.167 608.5,411.833 608.5,466.5 Z"/></g>
<g><path style="opacity:0.314" fill="#7c7c7c" d="M 516.5,303.5 C 519.013,307.193 521.013,311.193 522.5,315.5C 519.46,312.086 517.46,308.086 516.5,303.5 Z"/></g>
<g><path style="opacity:0.314" fill="#9c9c9c" d="M 787.5,309.5 C 788.495,320.988 788.828,332.655 788.5,344.5C 783.5,344.5 778.5,344.5 773.5,344.5C 777.97,343.514 782.637,343.181 787.5,343.5C 787.5,332.167 787.5,320.833 787.5,309.5 Z"/></g>
<g><path style="opacity:1" fill="#030303" d="M 789.5,308.5 C 796.167,308.5 802.833,308.5 809.5,308.5C 809.5,320.5 809.5,332.5 809.5,344.5C 823.323,345.496 837.323,345.829 851.5,345.5C 851.5,350.833 851.5,356.167 851.5,361.5C 837.5,361.5 823.5,361.5 809.5,361.5C 809.333,386.836 809.5,412.169 810,437.5C 810.772,442.08 812.939,445.747 816.5,448.5C 818.32,450.448 820.654,451.448 823.5,451.5C 828.5,451.5 833.5,451.5 838.5,451.5C 840.265,452.461 842.265,452.795 844.5,452.5C 844.5,451.5 844.5,450.5 844.5,449.5C 845.167,449.5 845.833,449.5 846.5,449.5C 848.309,450.291 850.309,450.291 852.5,449.5C 852.5,455.5 852.5,461.5 852.5,467.5C 849.99,467.054 847.99,467.72 846.5,469.5C 845.167,469.5 843.833,469.5 842.5,469.5C 840.219,469.077 838.552,469.744 837.5,471.5C 835.167,471.5 832.833,471.5 830.5,471.5C 825.668,470.6 820.668,469.934 815.5,469.5C 814.5,469.5 813.5,469.5 812.5,469.5C 810.469,467.245 807.802,465.912 804.5,465.5C 803.421,463.457 801.754,462.124 799.5,461.5C 798.833,460.167 797.833,459.167 796.5,458.5C 795.833,458.5 795.5,458.167 795.5,457.5C 793.707,452.058 791.373,447.058 788.5,442.5C 788.5,441.167 788.5,439.833 788.5,438.5C 789.663,413.337 789.83,388.003 789,362.5C 784.263,361.531 779.43,361.197 774.5,361.5C 774.5,356.167 774.5,350.833 774.5,345.5C 779.363,345.819 784.03,345.486 788.5,344.5C 789.495,332.678 789.828,320.678 789.5,308.5 Z"/></g>
<g><path style="opacity:0.651" fill="#4a4a4a" d="M 787.5,309.5 C 787.842,308.662 788.508,308.328 789.5,308.5C 789.828,320.678 789.495,332.678 788.5,344.5C 788.828,332.655 788.495,320.988 787.5,309.5 Z"/></g>
<g><path style="opacity:0.314" fill="#898989" d="M 523.5,317.5 C 526.304,321.091 528.637,325.091 530.5,329.5C 527.159,326.16 524.826,322.16 523.5,317.5 Z"/></g>
<g><path style="opacity:0.314" fill="#8d8d8d" d="M 899.5,301.5 C 900.165,305.151 900.499,308.985 900.5,313C 900.638,317.344 900.138,321.511 899,325.5C 892,324.167 885,324.167 878,325.5C 877.283,324.956 876.783,324.289 876.5,323.5C 876.833,323.5 877.167,323.5 877.5,323.5C 884.833,323.5 892.167,323.5 899.5,323.5C 899.5,316.167 899.5,308.833 899.5,301.5 Z"/></g>
<g><path style="opacity:0.431" fill="#7f7f7f" d="M 509.5,334.5 C 507.399,331.752 505.566,328.752 504,325.5C 503.667,373.167 503.333,420.833 503,468.5C 496.248,469.645 489.414,469.811 482.5,469C 481.584,468.722 480.918,468.222 480.5,467.5C 481.167,467.5 481.833,467.5 482.5,467.5C 488.833,467.5 495.167,467.5 501.5,467.5C 501.167,418.829 501.5,370.162 502.5,321.5C 506.143,325.069 508.476,329.402 509.5,334.5 Z"/></g>
<g><path style="opacity:0.314" fill="#8b8b8b" d="M 531.5,332.5 C 533.25,333.659 534.25,335.326 534.5,337.5C 532.75,336.341 531.75,334.674 531.5,332.5 Z"/></g>
<g><path style="opacity:1" fill="#7e7e7e" d="M 187.5,334.5 C 186.849,372.387 187.516,410.054 189.5,447.5C 188.5,447.5 187.5,447.5 186.5,447.5C 186.168,409.663 186.502,371.996 187.5,334.5 Z"/></g>
<g><path style="opacity:0.455" fill="#2b2b2b" d="M 707.5,340.5 C 708.167,341.167 708.833,341.833 709.5,342.5C 701.34,341.675 693.34,341.341 685.5,341.5C 692.746,340.536 700.08,340.203 707.5,340.5 Z"/></g>
<g><path style="opacity:0.38" fill="#595959" d="M 1142.5,340.5 C 1145.9,340.342 1149.24,340.676 1152.5,341.5C 1149.7,342.638 1146.7,342.805 1143.5,342C 1142.94,341.617 1142.61,341.117 1142.5,340.5 Z"/></g>
<g><path style="opacity:0.055" fill="#7f7f7f" d="M 509.5,334.5 C 512.063,338.17 514.063,342.17 515.5,346.5C 512.562,343.053 510.562,339.053 509.5,334.5 Z"/></g>
<g><path style="opacity:1" fill="#040404" d="M 683.5,341.5 C 684.167,341.5 684.833,341.5 685.5,341.5C 693.34,341.341 701.34,341.675 709.5,342.5C 710.167,342.5 710.833,342.5 711.5,342.5C 711.611,343.117 711.944,343.617 712.5,344C 714.891,344.287 717.224,344.787 719.5,345.5C 720.107,345.376 720.44,345.043 720.5,344.5C 721.167,344.5 721.833,344.5 722.5,344.5C 725.339,347.982 729.005,350.315 733.5,351.5C 734.5,351.833 735.167,352.5 735.5,353.5C 736.167,354.833 737.167,355.833 738.5,356.5C 739.419,359.089 741.086,361.089 743.5,362.5C 744.34,364.853 745.674,366.853 747.5,368.5C 748.906,368.973 749.573,369.973 749.5,371.5C 748.529,372.962 748.862,374.295 750.5,375.5C 752.175,382.369 753.675,389.369 755,396.5C 755.928,405.604 755.428,414.604 753.5,423.5C 753.624,424.107 753.957,424.44 754.5,424.5C 754.5,424.833 754.5,425.167 754.5,425.5C 753.883,425.611 753.383,425.944 753,426.5C 752.433,429.168 751.933,431.834 751.5,434.5C 751.5,435.167 751.5,435.833 751.5,436.5C 749.245,438.531 747.912,441.198 747.5,444.5C 747.068,445.71 746.401,446.71 745.5,447.5C 743.721,448.67 742.721,450.336 742.5,452.5C 740.736,453.326 739.402,454.659 738.5,456.5C 737.167,457.167 736.167,458.167 735.5,459.5C 732.467,459.875 730.467,461.542 729.5,464.5C 728.167,465.167 726.833,465.833 725.5,466.5C 722.423,466.179 720.09,467.179 718.5,469.5C 717.833,469.5 717.167,469.5 716.5,469.5C 714.821,469.285 713.821,469.952 713.5,471.5C 712.5,471.5 711.5,471.5 710.5,471.5C 709.036,470.84 707.369,470.507 705.5,470.5C 703.36,470.556 701.694,471.223 700.5,472.5C 698.833,472.5 697.167,472.5 695.5,472.5C 694.486,471.235 692.986,470.569 691,470.5C 689.293,470.508 687.793,470.842 686.5,471.5C 685.5,471.5 684.5,471.5 683.5,471.5C 682.657,469.827 681.324,468.66 679.5,468C 676.647,466.57 673.647,465.737 670.5,465.5C 670.167,465.5 669.833,465.5 669.5,465.5C 669.611,464.883 669.944,464.383 670.5,464C 668.58,462.878 666.58,462.044 664.5,461.5C 663.564,460.026 662.23,459.026 660.5,458.5C 658.227,458.043 656.894,456.71 656.5,454.5C 656.262,452.596 655.262,451.262 653.5,450.5C 652.833,450.5 652.5,450.167 652.5,449.5C 651.921,446.669 650.588,444.336 648.5,442.5C 646.495,435.473 644.161,428.806 641.5,422.5C 641.5,421.833 641.5,421.167 641.5,420.5C 642.139,419.903 642.472,419.07 642.5,418C 642.008,413.995 641.341,410.162 640.5,406.5C 640.5,406.167 640.5,405.833 640.5,405.5C 641.362,402.177 642.028,398.677 642.5,395C 642.472,393.93 642.139,393.097 641.5,392.5C 641.5,392.167 641.5,391.833 641.5,391.5C 642.993,390.688 643.66,389.355 643.5,387.5C 643.48,386.274 643.147,385.274 642.5,384.5C 642.5,384.167 642.5,383.833 642.5,383.5C 644.048,383.179 644.715,382.179 644.5,380.5C 644.5,380.167 644.5,379.833 644.5,379.5C 646.873,375.402 648.873,371.068 650.5,366.5C 652.262,365.738 653.262,364.404 653.5,362.5C 654.974,361.564 655.974,360.23 656.5,358.5C 656.5,357.833 656.833,357.5 657.5,357.5C 659.5,357.5 660.5,356.5 660.5,354.5C 661.035,352.554 662.368,351.554 664.5,351.5C 666.795,350.864 668.461,349.531 669.5,347.5C 671.027,347.573 672.027,346.906 672.5,345.5C 673.15,345.804 673.817,346.137 674.5,346.5C 677.399,345.358 680.399,344.692 683.5,344.5C 683.5,343.5 683.5,342.5 683.5,341.5 Z M 706.5,360.5 C 707.167,360.5 707.833,360.5 708.5,360.5C 711.344,361.31 714.01,362.644 716.5,364.5C 720.833,366.833 724.167,370.167 726.5,374.5C 726.953,376.565 727.953,378.232 729.5,379.5C 730.205,385.126 731.538,390.46 733.5,395.5C 733.5,402.167 733.5,408.833 733.5,415.5C 732.132,419.416 731.132,423.416 730.5,427.5C 730.086,430.743 729.086,433.743 727.5,436.5C 725.633,438.969 723.967,441.636 722.5,444.5C 717.483,447.732 712.15,450.399 706.5,452.5C 706.167,452.5 705.833,452.5 705.5,452.5C 700.833,452.5 696.167,452.5 691.5,452.5C 691.167,452.5 690.833,452.5 690.5,452.5C 689.609,451.89 688.609,451.557 687.5,451.5C 686.833,451.5 686.167,451.5 685.5,451.5C 681.583,448.863 677.583,446.196 673.5,443.5C 671.15,439.372 668.816,435.372 666.5,431.5C 666.5,430.833 666.5,430.167 666.5,429.5C 665.962,427.883 665.629,426.216 665.5,424.5C 665.5,424.167 665.5,423.833 665.5,423.5C 664.38,412.88 664.213,402.213 665,391.5C 665.618,385.552 667.118,379.886 669.5,374.5C 670.167,374.5 670.5,374.167 670.5,373.5C 671.906,373.027 672.573,372.027 672.5,370.5C 674.773,370.043 676.106,368.71 676.5,366.5C 677.167,366.167 677.833,365.833 678.5,365.5C 680.999,364.699 682.999,363.366 684.5,361.5C 685.167,361.5 685.833,361.5 686.5,361.5C 687.609,361.443 688.609,361.11 689.5,360.5C 690.167,360.5 690.833,360.5 691.5,360.5C 696.668,359.667 701.668,359.667 706.5,360.5 Z"/></g>
<g><path style="opacity:0.314" fill="#9b9b9b" d="M 707.5,340.5 C 709.216,340.629 710.883,340.962 712.5,341.5C 712.5,342.167 712.167,342.5 711.5,342.5C 710.833,342.5 710.167,342.5 709.5,342.5C 708.833,341.833 708.167,341.167 707.5,340.5 Z"/></g>
<g><path style="opacity:0.055" fill="#8d8d8d" d="M 973.5,341.5 C 972.817,343.176 971.483,343.843 969.5,343.5C 970.514,342.326 971.847,341.66 973.5,341.5 Z"/></g>
<g><path style="opacity:0.314" fill="#888888" d="M 978.5,340.5 C 978.611,341.117 978.944,341.617 979.5,342C 977.934,342.765 976.601,342.598 975.5,341.5C 976.391,340.89 977.391,340.557 978.5,340.5 Z"/></g>
<g><path style="opacity:1" fill="#030303" d="M 978.5,340.5 C 985.167,340.5 991.833,340.5 998.5,340.5C 998.47,341.497 998.97,342.164 1000,342.5C 1005.67,343.86 1011.17,345.527 1016.5,347.5C 1019.32,349.745 1022.32,351.745 1025.5,353.5C 1027.17,354.5 1028.5,355.833 1029.5,357.5C 1030.42,360.089 1032.09,362.089 1034.5,363.5C 1034.67,366.204 1036,367.871 1038.5,368.5C 1038.5,368.833 1038.5,369.167 1038.5,369.5C 1038.06,369.435 1037.73,369.601 1037.5,370C 1040.26,375.384 1042.6,380.884 1044.5,386.5C 1044.5,387.167 1044.5,387.833 1044.5,388.5C 1044.41,391.152 1045.08,393.485 1046.5,395.5C 1046.5,397.167 1046.5,398.833 1046.5,400.5C 1045.17,404.5 1045.17,408.5 1046.5,412.5C 1046.5,414.167 1046.5,415.833 1046.5,417.5C 1044.72,418.99 1044.05,420.99 1044.5,423.5C 1044.5,424.5 1044.5,425.5 1044.5,426.5C 1042.4,427.879 1042.07,429.545 1043.5,431.5C 1043.5,431.833 1043.5,432.167 1043.5,432.5C 1040.45,436.252 1038.12,440.586 1036.5,445.5C 1034.79,448.197 1033.12,450.864 1031.5,453.5C 1030.17,454.167 1029.17,455.167 1028.5,456.5C 1027.5,458.167 1026.17,459.5 1024.5,460.5C 1021.93,460.738 1020.26,462.071 1019.5,464.5C 1018.79,465.404 1017.79,465.737 1016.5,465.5C 1014.59,466.185 1012.59,466.685 1010.5,467C 1009.24,467.417 1008.58,468.25 1008.5,469.5C 1007.83,469.5 1007.17,469.5 1006.5,469.5C 1004.82,469.285 1003.82,469.952 1003.5,471.5C 1002.5,471.5 1001.5,471.5 1000.5,471.5C 999.207,470.842 997.707,470.508 996,470.5C 994.014,470.569 992.514,471.235 991.5,472.5C 989.833,472.5 988.167,472.5 986.5,472.5C 981.592,470.62 976.259,469.62 970.5,469.5C 969.833,469.5 969.167,469.5 968.5,469.5C 967.816,467.815 966.483,466.815 964.5,466.5C 963.893,466.624 963.56,466.957 963.5,467.5C 963.167,467.5 962.833,467.5 962.5,467.5C 962.5,466.167 961.833,465.5 960.5,465.5C 960.167,465.5 959.833,465.5 959.5,465.5C 958.461,463.469 956.795,462.136 954.5,461.5C 953.032,460.194 951.699,458.694 950.5,457C 949.552,456.517 948.552,456.351 947.5,456.5C 947.5,456.167 947.5,455.833 947.5,455.5C 946.92,453.251 945.587,451.585 943.5,450.5C 943.262,448.596 942.262,447.262 940.5,446.5C 940.539,443.911 939.539,441.911 937.5,440.5C 935.999,434.496 934.499,428.496 933,422.5C 931.9,412.324 931.4,402.324 931.5,392.5C 931.5,391.5 931.5,390.5 931.5,389.5C 933.308,388.082 933.975,386.082 933.5,383.5C 934.117,383.389 934.617,383.056 935,382.5C 935.943,379.176 936.776,375.843 937.5,372.5C 941.738,365.243 947.072,358.743 953.5,353C 956.788,352.434 958.788,350.6 959.5,347.5C 959.833,347.5 960.167,347.5 960.5,347.5C 960.56,348.043 960.893,348.376 961.5,348.5C 964.077,347.057 966.41,345.39 968.5,343.5C 968.833,343.5 969.167,343.5 969.5,343.5C 971.483,343.843 972.817,343.176 973.5,341.5C 974.167,341.5 974.833,341.5 975.5,341.5C 976.601,342.598 977.934,342.765 979.5,342C 978.944,341.617 978.611,341.117 978.5,340.5 Z M 993.5,360.5 C 996.518,360.704 999.518,361.037 1002.5,361.5C 1003.4,363.727 1005.07,364.727 1007.5,364.5C 1008.26,366.262 1009.6,367.262 1011.5,367.5C 1012.42,370.089 1014.09,372.089 1016.5,373.5C 1016.73,375.062 1017.4,376.395 1018.5,377.5C 1018.97,379.579 1019.64,381.579 1020.5,383.5C 1020.5,383.833 1020.5,384.167 1020.5,384.5C 1020.23,386.38 1020.9,387.713 1022.5,388.5C 1022.5,389.5 1022.5,390.5 1022.5,391.5C 1022.3,393.95 1022.63,396.283 1023.5,398.5C 1023.5,403.833 1023.5,409.167 1023.5,414.5C 1022.16,421.535 1020.49,428.535 1018.5,435.5C 1016.75,436.659 1015.75,438.326 1015.5,440.5C 1014.83,440.5 1014.5,440.833 1014.5,441.5C 1011.83,443.5 1009.5,445.833 1007.5,448.5C 1003.84,449.82 1000.17,451.153 996.5,452.5C 996.167,452.5 995.833,452.5 995.5,452.5C 991.167,452.5 986.833,452.5 982.5,452.5C 981.833,452.5 981.167,452.5 980.5,452.5C 979.292,451.766 977.959,451.433 976.5,451.5C 976.167,451.5 975.833,451.5 975.5,451.5C 974.789,449.799 973.455,448.799 971.5,448.5C 968.55,446.885 965.884,444.885 963.5,442.5C 962.876,440.246 961.543,438.579 959.5,437.5C 959.672,436.508 959.338,435.842 958.5,435.5C 956.696,430.33 955.363,424.997 954.5,419.5C 954.5,418.5 954.5,417.5 954.5,416.5C 953.496,408.853 953.496,401.186 954.5,393.5C 954.5,393.167 954.5,392.833 954.5,392.5C 955.977,385.073 958.644,378.073 962.5,371.5C 963.401,370.71 964.068,369.71 964.5,368.5C 965.71,368.068 966.71,367.401 967.5,366.5C 967.5,365.833 967.833,365.5 968.5,365.5C 970.999,364.699 972.999,363.366 974.5,361.5C 976.292,361.634 977.958,361.301 979.5,360.5C 979.833,360.5 980.167,360.5 980.5,360.5C 985.036,359.566 989.369,359.566 993.5,360.5 Z"/></g>
<g><path style="opacity:0.431" fill="#666666" d="M 1139.5,340.5 C 1139.39,341.117 1139.06,341.617 1138.5,342C 1132.41,342.375 1126.41,343.208 1120.5,344.5C 1126.31,341.579 1132.65,340.245 1139.5,340.5 Z"/></g>
<g><path style="opacity:1" fill="#020202" d="M 1139.5,340.5 C 1140.5,340.5 1141.5,340.5 1142.5,340.5C 1142.61,341.117 1142.94,341.617 1143.5,342C 1146.7,342.805 1149.7,342.638 1152.5,341.5C 1153.17,341.5 1153.83,341.5 1154.5,341.5C 1154.5,342.833 1155.17,343.5 1156.5,343.5C 1157.17,343.5 1157.83,343.5 1158.5,343.5C 1165.03,347.354 1170.7,352.354 1175.5,358.5C 1175.66,360.153 1176.33,361.486 1177.5,362.5C 1177,366.481 1178.33,369.481 1181.5,371.5C 1181.5,372.167 1181.5,372.833 1181.5,373.5C 1180.36,376.304 1180.2,379.304 1181,382.5C 1181.38,383.056 1181.88,383.389 1182.5,383.5C 1182.5,411.5 1182.5,439.5 1182.5,467.5C 1175.83,467.5 1169.17,467.5 1162.5,467.5C 1162.67,440.498 1162.5,413.498 1162,386.5C 1161.79,384.942 1161.29,383.609 1160.5,382.5C 1160.7,374.351 1157.37,368.351 1150.5,364.5C 1148.38,362.345 1145.72,361.345 1142.5,361.5C 1137.83,361.5 1133.17,361.5 1128.5,361.5C 1126.52,361.157 1125.18,361.824 1124.5,363.5C 1123.83,363.5 1123.17,363.5 1122.5,363.5C 1121.54,362.485 1120.37,362.485 1119,363.5C 1117.97,363.836 1117.47,364.503 1117.5,365.5C 1117.17,365.5 1116.83,365.5 1116.5,365.5C 1113.97,365.259 1112.3,366.259 1111.5,368.5C 1109.36,370.151 1107.02,371.485 1104.5,372.5C 1101.8,372.845 1099.8,374.178 1098.5,376.5C 1097.5,406.662 1097.17,436.995 1097.5,467.5C 1091.17,467.5 1084.83,467.5 1078.5,467.5C 1078.17,467.5 1077.83,467.5 1077.5,467.5C 1077.5,426.833 1077.5,386.167 1077.5,345.5C 1084.41,344.538 1091.41,344.205 1098.5,344.5C 1098.5,348.833 1098.5,353.167 1098.5,357.5C 1100.18,357.715 1101.18,357.048 1101.5,355.5C 1103.63,355.446 1104.97,354.446 1105.5,352.5C 1107.38,352.771 1108.71,352.104 1109.5,350.5C 1109.5,349.833 1109.83,349.5 1110.5,349.5C 1110.43,349.938 1110.6,350.272 1111,350.5C 1112.52,349.837 1113.69,348.837 1114.5,347.5C 1114.83,347.5 1115.17,347.5 1115.5,347.5C 1117.46,347.201 1118.79,346.201 1119.5,344.5C 1119.83,344.5 1120.17,344.5 1120.5,344.5C 1126.41,343.208 1132.41,342.375 1138.5,342C 1139.06,341.617 1139.39,341.117 1139.5,340.5 Z"/></g>
<g><path style="opacity:0.055" fill="#8d8d8d" d="M 1154.5,341.5 C 1155.83,341.5 1156.5,342.167 1156.5,343.5C 1156.5,342.167 1155.83,341.5 1154.5,341.5 Z"/></g>
<g><path style="opacity:1" fill="#d5d5d5" d="M 98.5,248.5 C 97.5111,330.478 97.1778,412.478 97.5,494.5C 96.3344,413.668 96.1677,332.668 97,251.5C 97.2321,250.263 97.7321,249.263 98.5,248.5 Z"/></g>
<g><path style="opacity:0.314" fill="#979797" d="M 535.5,340.5 C 537.048,340.821 537.715,341.821 537.5,343.5C 536.599,342.71 535.932,341.71 535.5,340.5 Z"/></g>
<g><path style="opacity:0.898" fill="#575757" d="M 998.5,340.5 C 1003.66,341.407 1008.66,342.907 1013.5,345C 1014.94,345.377 1015.94,346.21 1016.5,347.5C 1011.17,345.527 1005.67,343.86 1000,342.5C 998.97,342.164 998.47,341.497 998.5,340.5 Z"/></g>
<g><path style="opacity:0.965" fill="#3f3f3f" d="M 712.5,341.5 C 715.21,342.506 717.876,343.506 720.5,344.5C 720.44,345.043 720.107,345.376 719.5,345.5C 717.224,344.787 714.891,344.287 712.5,344C 711.944,343.617 711.611,343.117 711.5,342.5C 712.167,342.5 712.5,342.167 712.5,341.5 Z"/></g>
<g><path style="opacity:0.314" fill="#999999" d="M 809.5,308.5 C 810.495,319.988 810.828,331.655 810.5,343.5C 825.206,342.85 839.539,343.517 853.5,345.5C 838.912,344.517 824.245,344.184 809.5,344.5C 809.5,332.5 809.5,320.5 809.5,308.5 Z"/></g>
<g><path style="opacity:0.314" fill="#8f8f8f" d="M 1101.5,355.5 C 1101.18,357.048 1100.18,357.715 1098.5,357.5C 1098.5,353.167 1098.5,348.833 1098.5,344.5C 1091.41,344.205 1084.41,344.538 1077.5,345.5C 1080.77,344.178 1084.43,343.511 1088.5,343.5C 1092.17,343.667 1095.83,343.833 1099.5,344C 1100.14,347.935 1100.8,351.769 1101.5,355.5 Z"/></g>
<g><path style="opacity:0.898" fill="#4c4c4c" d="M 683.5,341.5 C 683.5,342.5 683.5,343.5 683.5,344.5C 680.399,344.692 677.399,345.358 674.5,346.5C 673.817,346.137 673.15,345.804 672.5,345.5C 676.173,344.327 679.84,342.993 683.5,341.5 Z"/></g>
<g><path style="opacity:0.173" fill="#4c4c4c" d="M 773.5,344.5 C 778.5,344.5 783.5,344.5 788.5,344.5C 784.03,345.486 779.363,345.819 774.5,345.5C 774.5,350.833 774.5,356.167 774.5,361.5C 774.167,361.5 773.833,361.5 773.5,361.5C 772.167,355.833 772.167,350.167 773.5,344.5 Z"/></g>
<g><path style="opacity:0.11" fill="#929292" d="M 877.5,343.5 C 884.833,343.5 892.167,343.5 899.5,343.5C 899.667,385.168 899.5,426.835 899,468.5C 891.667,469.833 884.333,469.833 877,468.5C 876.173,426.762 876.34,385.096 877.5,343.5 Z"/></g>
<g><path style="opacity:1" fill="#020202" d="M 878.5,344.5 C 885.167,344.5 891.833,344.5 898.5,344.5C 898.5,385.5 898.5,426.5 898.5,467.5C 891.833,467.5 885.167,467.5 878.5,467.5C 878.5,426.5 878.5,385.5 878.5,344.5 Z"/></g>
<g><path style="opacity:0.765" fill="#4f4f4f" d="M 968.5,343.5 C 966.41,345.39 964.077,347.057 961.5,348.5C 960.893,348.376 960.56,348.043 960.5,347.5C 962.612,345.229 965.279,343.896 968.5,343.5 Z"/></g>
<g><path style="opacity:0.196" fill="#9b9b9b" d="M 672.5,345.5 C 672.027,346.906 671.027,347.573 669.5,347.5C 669.973,346.094 670.973,345.427 672.5,345.5 Z"/></g>
<g><path style="opacity:0.314" fill="#929292" d="M 1119.5,344.5 C 1118.79,346.201 1117.46,347.201 1115.5,347.5C 1116.21,345.799 1117.54,344.799 1119.5,344.5 Z"/></g>
<g><path style="opacity:0.11" fill="#848484" d="M 537.5,343.5 C 539.924,346.008 541.59,349.008 542.5,352.5C 540.057,349.948 538.39,346.948 537.5,343.5 Z"/></g>
<g><path style="opacity:0.357" fill="#525252" d="M 669.5,347.5 C 668.461,349.531 666.795,350.864 664.5,351.5C 665.444,349.312 667.111,347.979 669.5,347.5 Z"/></g>
<g><path style="opacity:0.455" fill="#5b5b5b" d="M 722.5,344.5 C 726.436,346.442 730.103,348.775 733.5,351.5C 729.005,350.315 725.339,347.982 722.5,344.5 Z"/></g>
<g><path style="opacity:0.431" fill="#787878" d="M 1016.5,347.5 C 1020.32,348.246 1023.32,350.246 1025.5,353.5C 1022.32,351.745 1019.32,349.745 1016.5,347.5 Z"/></g>
<g><path style="opacity:0.314" fill="#868686" d="M 1114.5,347.5 C 1113.69,348.837 1112.52,349.837 1111,350.5C 1110.6,350.272 1110.43,349.938 1110.5,349.5C 1111.51,348.326 1112.85,347.66 1114.5,347.5 Z"/></g>
<g><path style="opacity:0.561" fill="#777777" d="M 515.5,346.5 C 516.458,346.953 517.292,347.619 518,348.5C 520.733,353.73 523.233,359.064 525.5,364.5C 524.624,364.631 523.957,364.298 523.5,363.5C 520.379,357.614 517.713,351.947 515.5,346.5 Z"/></g>
<g><path style="opacity:0.651" fill="#6e6e6e" d="M 1158.5,343.5 C 1166.37,346.038 1172.04,351.038 1175.5,358.5C 1170.7,352.354 1165.03,347.354 1158.5,343.5 Z"/></g>
<g><path style="opacity:0.898" fill="#2a2a2a" d="M 809.5,344.5 C 824.245,344.184 838.912,344.517 853.5,345.5C 853.5,350.833 853.5,356.167 853.5,361.5C 852.833,361.5 852.167,361.5 851.5,361.5C 851.5,356.167 851.5,350.833 851.5,345.5C 837.323,345.829 823.323,345.496 809.5,344.5 Z"/></g>
<g><path style="opacity:0.431" fill="#7c7c7c" d="M 1109.5,350.5 C 1108.71,352.104 1107.38,352.771 1105.5,352.5C 1106.51,351.326 1107.85,350.66 1109.5,350.5 Z"/></g>
<g><path style="opacity:0.055" fill="#888888" d="M 542.5,352.5 C 544.104,353.287 544.771,354.62 544.5,356.5C 543.326,355.486 542.66,354.153 542.5,352.5 Z"/></g>
<g><path style="opacity:0.055" fill="#929292" d="M 735.5,353.5 C 737.5,353.5 738.5,354.5 738.5,356.5C 737.167,355.833 736.167,354.833 735.5,353.5 Z"/></g>
<g><path style="opacity:0.314" fill="#8c8c8c" d="M 1105.5,352.5 C 1104.97,354.446 1103.63,355.446 1101.5,355.5C 1102.44,354.026 1103.77,353.026 1105.5,352.5 Z"/></g>
<g><path style="opacity:1" fill="#7c7c7c" d="M 200.5,353.5 C 201.906,353.973 202.573,354.973 202.5,356.5C 201.094,356.027 200.427,355.027 200.5,353.5 Z"/></g>
<g><path style="opacity:0.314" fill="#6f6f6f" d="M 660.5,354.5 C 660.5,356.5 659.5,357.5 657.5,357.5C 657.81,355.856 658.81,354.856 660.5,354.5 Z"/></g>
<g><path style="opacity:0.314" fill="#8d8d8d" d="M 544.5,356.5 C 545.674,357.514 546.34,358.847 546.5,360.5C 544.896,359.713 544.229,358.38 544.5,356.5 Z"/></g>
<g><path style="opacity:0.314" fill="#797979" d="M 706.5,360.5 C 701.668,359.667 696.668,359.667 691.5,360.5C 693.571,359.191 696.071,358.525 699,358.5C 701.929,358.525 704.429,359.191 706.5,360.5 Z"/></g>
<g><path style="opacity:0.314" fill="#838383" d="M 993.5,360.5 C 989.369,359.566 985.036,359.566 980.5,360.5C 980.611,359.883 980.944,359.383 981.5,359C 985.833,358.333 990.167,358.333 994.5,359C 993.944,359.383 993.611,359.883 993.5,360.5 Z"/></g>
<g><path style="opacity:0.859" fill="#727272" d="M 1029.5,357.5 C 1031.91,358.911 1033.58,360.911 1034.5,363.5C 1032.09,362.089 1030.42,360.089 1029.5,357.5 Z"/></g>
<g><path style="opacity:0.561" fill="#777777" d="M 738.5,356.5 C 740.914,357.911 742.581,359.911 743.5,362.5C 741.086,361.089 739.419,359.089 738.5,356.5 Z"/></g>
<g><path style="opacity:0.11" fill="#888888" d="M 689.5,360.5 C 688.609,361.11 687.609,361.443 686.5,361.5C 687.221,359.618 688.221,359.285 689.5,360.5 Z"/></g>
<g><path style="opacity:0.898" fill="#535353" d="M 716.5,364.5 C 714.01,362.644 711.344,361.31 708.5,360.5C 709.612,359.628 710.946,359.628 712.5,360.5C 714.545,361.211 715.878,362.544 716.5,364.5 Z"/></g>
<g><path style="opacity:0.561" fill="#606060" d="M 979.5,360.5 C 977.958,361.301 976.292,361.634 974.5,361.5C 975.879,359.403 977.545,359.07 979.5,360.5 Z"/></g>
<g><path style="opacity:0.11" fill="#8f8f8f" d="M 1175.5,358.5 C 1177.1,359.287 1177.77,360.62 1177.5,362.5C 1176.33,361.486 1175.66,360.153 1175.5,358.5 Z"/></g>
<g><path style="opacity:0.11" fill="#8b8b8b" d="M 546.5,360.5 C 548.588,362.336 549.921,364.669 550.5,367.5C 548.412,365.664 547.079,363.331 546.5,360.5 Z"/></g>
<g><path style="opacity:0.314" fill="#949494" d="M 656.5,358.5 C 655.974,360.23 654.974,361.564 653.5,362.5C 653.554,360.368 654.554,359.035 656.5,358.5 Z"/></g>
<g><path style="opacity:0.965" fill="#4c4c4c" d="M 974.5,361.5 C 972.999,363.366 970.999,364.699 968.5,365.5C 969.112,362.303 971.112,360.969 974.5,361.5 Z"/></g>
<g><path style="opacity:0.561" fill="#707070" d="M 1002.5,361.5 C 1004.67,361.75 1006.34,362.75 1007.5,364.5C 1005.07,364.727 1003.4,363.727 1002.5,361.5 Z"/></g>
<g><path style="opacity:0.055" fill="#909090" d="M 1128.5,361.5 C 1127.49,362.674 1126.15,363.34 1124.5,363.5C 1125.18,361.824 1126.52,361.157 1128.5,361.5 Z"/></g>
<g><path style="opacity:0.055" fill="#8e8e8e" d="M 1142.5,361.5 C 1145.72,361.345 1148.38,362.345 1150.5,364.5C 1147.36,364.397 1144.7,363.397 1142.5,361.5 Z"/></g>
<g><path style="opacity:0.431" fill="#555555" d="M 684.5,361.5 C 682.999,363.366 680.999,364.699 678.5,365.5C 679.487,362.914 681.487,361.581 684.5,361.5 Z"/></g>
<g><path style="opacity:0.055" fill="#8c8c8c" d="M 851.5,361.5 C 852.167,361.5 852.833,361.5 853.5,361.5C 853.389,362.117 853.056,362.617 852.5,363C 838.504,363.5 824.504,363.667 810.5,363.5C 810.333,386.836 810.5,410.169 811,433.5C 811.346,436.576 812.012,439.576 813,442.5C 814.442,444.391 815.609,446.391 816.5,448.5C 812.939,445.747 810.772,442.08 810,437.5C 809.5,412.169 809.333,386.836 809.5,361.5C 823.5,361.5 837.5,361.5 851.5,361.5 Z"/></g>
<g><path style="opacity:0.561" fill="#747474" d="M 1122.5,363.5 C 1120.95,364.441 1119.28,365.107 1117.5,365.5C 1117.47,364.503 1117.97,363.836 1119,363.5C 1120.37,362.485 1121.54,362.485 1122.5,363.5 Z"/></g>
<g><path style="opacity:0.431" fill="#787878" d="M 653.5,362.5 C 653.262,364.404 652.262,365.738 650.5,366.5C 650.738,364.596 651.738,363.262 653.5,362.5 Z"/></g>
<g><path style="opacity:0.314" fill="#838383" d="M 773.5,361.5 C 773.833,361.5 774.167,361.5 774.5,361.5C 779.43,361.197 784.263,361.531 789,362.5C 789.83,388.003 789.663,413.337 788.5,438.5C 787.528,413.532 787.195,388.532 787.5,363.5C 783.154,363.666 778.821,363.499 774.5,363C 773.944,362.617 773.611,362.117 773.5,361.5 Z"/></g>
<g><path style="opacity:0.314" fill="#909090" d="M 1007.5,364.5 C 1009.4,364.738 1010.74,365.738 1011.5,367.5C 1009.6,367.262 1008.26,366.262 1007.5,364.5 Z"/></g>
<g><path style="opacity:0.314" fill="#878787" d="M 967.5,366.5 C 966.71,367.401 965.71,368.068 964.5,368.5C 964.821,366.952 965.821,366.285 967.5,366.5 Z"/></g>
<g><path style="opacity:0.651" fill="#6d6d6d" d="M 1034.5,363.5 C 1036.06,364.945 1037.4,366.611 1038.5,368.5C 1036,367.871 1034.67,366.204 1034.5,363.5 Z"/></g>
<g><path style="opacity:0.431" fill="#6f6f6f" d="M 1116.5,365.5 C 1115.34,367.25 1113.67,368.25 1111.5,368.5C 1112.3,366.259 1113.97,365.259 1116.5,365.5 Z"/></g>
<g><path style="opacity:0.898" fill="#5f5f5f" d="M 1177.5,362.5 C 1178.82,365.457 1180.16,368.457 1181.5,371.5C 1178.33,369.481 1177,366.481 1177.5,362.5 Z"/></g>
<g><path style="opacity:0.431" fill="#7b7b7b" d="M 743.5,362.5 C 745.822,363.802 747.155,365.802 747.5,368.5C 745.674,366.853 744.34,364.853 743.5,362.5 Z"/></g>
<g><path style="opacity:0.055" fill="#989898" d="M 550.5,368.5 C 552.048,368.821 552.715,369.821 552.5,371.5C 551.599,370.71 550.932,369.71 550.5,368.5 Z"/></g>
<g><path style="opacity:0.431" fill="#6b6b6b" d="M 676.5,366.5 C 676.106,368.71 674.773,370.043 672.5,370.5C 672.894,368.29 674.227,366.957 676.5,366.5 Z"/></g>
<g><path style="opacity:0.11" fill="#8d8d8d" d="M 525.5,364.5 C 527.008,366.181 528.008,368.181 528.5,370.5C 526.461,369.089 525.461,367.089 525.5,364.5 Z"/></g>
<g><path style="opacity:0.431" fill="#767676" d="M 964.5,368.5 C 964.068,369.71 963.401,370.71 962.5,371.5C 962.285,369.821 962.952,368.821 964.5,368.5 Z"/></g>
<g><path style="opacity:0.314" fill="#898989" d="M 1011.5,367.5 C 1013.91,368.911 1015.58,370.911 1016.5,373.5C 1014.09,372.089 1012.42,370.089 1011.5,367.5 Z"/></g>
<g><path style="opacity:0.11" fill="#7d7d7d" d="M 1038.5,369.5 C 1041.86,374.549 1043.86,380.216 1044.5,386.5C 1042.6,380.884 1040.26,375.384 1037.5,370C 1037.73,369.601 1038.06,369.435 1038.5,369.5 Z"/></g>
<g><path style="opacity:0.431" fill="#7a7a7a" d="M 650.5,366.5 C 648.873,371.068 646.873,375.402 644.5,379.5C 645.181,374.477 647.181,370.144 650.5,366.5 Z"/></g>
<g><path style="opacity:0.11" fill="#8c8c8c" d="M 672.5,370.5 C 672.573,372.027 671.906,373.027 670.5,373.5C 670.427,371.973 671.094,370.973 672.5,370.5 Z"/></g>
<g><path style="opacity:0.431" fill="#676767" d="M 959.5,347.5 C 958.788,350.6 956.788,352.434 953.5,353C 947.072,358.743 941.738,365.243 937.5,372.5C 941.835,361.474 949.169,353.14 959.5,347.5 Z"/></g>
<g><path style="opacity:0.431" fill="#777777" d="M 528.5,370.5 C 530.682,371.823 531.349,373.49 530.5,375.5C 529.559,373.95 528.893,372.284 528.5,370.5 Z"/></g>
<g><path style="opacity:0.431" fill="#7d7d7d" d="M 552.5,371.5 C 553.674,372.514 554.34,373.847 554.5,375.5C 552.896,374.713 552.229,373.38 552.5,371.5 Z"/></g>
<g><path style="opacity:0.431" fill="#757575" d="M 749.5,371.5 C 750.234,372.708 750.567,374.041 750.5,375.5C 748.862,374.295 748.529,372.962 749.5,371.5 Z"/></g>
<g><path style="opacity:0.11" fill="#898989" d="M 726.5,374.5 C 728.408,375.486 729.408,377.152 729.5,379.5C 727.953,378.232 726.953,376.565 726.5,374.5 Z"/></g>
<g><path style="opacity:0.859" fill="#262626" d="M 1098.5,376.5 C 1098.5,407.167 1098.5,437.833 1098.5,468.5C 1091.65,468.824 1084.98,468.491 1078.5,467.5C 1084.83,467.5 1091.17,467.5 1097.5,467.5C 1097.17,436.995 1097.5,406.662 1098.5,376.5 Z"/></g>
<g><path style="opacity:0.055" fill="#848484" d="M 1104.5,372.5 C 1103.69,373.837 1102.52,374.837 1101,375.5C 1100.67,406.5 1100.33,437.5 1100,468.5C 1096.25,469.15 1092.42,469.483 1088.5,469.5C 1084.43,469.489 1080.77,468.822 1077.5,467.5C 1077.83,467.5 1078.17,467.5 1078.5,467.5C 1084.98,468.491 1091.65,468.824 1098.5,468.5C 1098.5,437.833 1098.5,407.167 1098.5,376.5C 1099.8,374.178 1101.8,372.845 1104.5,372.5 Z"/></g>
<g><path style="opacity:0.173" fill="#6b6b6b" d="M 669.5,374.5 C 667.118,379.886 665.618,385.552 665,391.5C 664.213,402.213 664.38,412.88 665.5,423.5C 663.87,421.974 663.037,419.974 663,417.5C 661.93,405.356 662.764,393.356 665.5,381.5C 666.847,379.07 668.18,376.736 669.5,374.5 Z"/></g>
<g><path style="opacity:0.055" fill="#8a8a8a" d="M 554.5,375.5 C 556.539,376.911 557.539,378.911 557.5,381.5C 555.992,379.819 554.992,377.819 554.5,375.5 Z"/></g>
<g><path style="opacity:0.314" fill="#888888" d="M 937.5,372.5 C 936.776,375.843 935.943,379.176 935,382.5C 934.617,383.056 934.117,383.389 933.5,383.5C 934.329,380.185 935.162,376.852 936,373.5C 936.383,372.944 936.883,372.611 937.5,372.5 Z"/></g>
<g><path style="opacity:0.431" fill="#777777" d="M 1018.5,377.5 C 1020.98,379.085 1021.65,381.085 1020.5,383.5C 1019.64,381.579 1018.97,379.579 1018.5,377.5 Z"/></g>
<g><path style="opacity:0.651" fill="#585858" d="M 1181.5,373.5 C 1182.41,376.728 1182.75,380.061 1182.5,383.5C 1181.88,383.389 1181.38,383.056 1181,382.5C 1180.2,379.304 1180.36,376.304 1181.5,373.5 Z"/></g>
<g><path style="opacity:0.431" fill="#767676" d="M 530.5,376.5 C 531.5,376.5 532.5,376.5 533.5,376.5C 535.79,381.81 538.123,387.143 540.5,392.5C 536.875,387.501 533.542,382.168 530.5,376.5 Z"/></g>
<g><path style="opacity:0.431" fill="#696969" d="M 1150.5,364.5 C 1157.37,368.351 1160.7,374.351 1160.5,382.5C 1160.74,383.791 1160.4,384.791 1159.5,385.5C 1159.79,377.004 1156.79,370.004 1150.5,364.5 Z"/></g>
<g><path style="opacity:0.055" fill="#7a7a7a" d="M 962.5,371.5 C 958.644,378.073 955.977,385.073 954.5,392.5C 953.861,391.903 953.528,391.07 953.5,390C 954.331,384.493 956.165,379.327 959,374.5C 959.759,372.937 960.926,371.937 962.5,371.5 Z"/></g>
<g><path style="opacity:0.11" fill="#959595" d="M 644.5,380.5 C 644.715,382.179 644.048,383.179 642.5,383.5C 642.427,381.973 643.094,380.973 644.5,380.5 Z"/></g>
<g><path style="opacity:0.196" fill="#939393" d="M 933.5,383.5 C 933.975,386.082 933.308,388.082 931.5,389.5C 931.595,387.214 932.262,385.214 933.5,383.5 Z"/></g>
<g><path style="opacity:0.314" fill="#929292" d="M 1020.5,384.5 C 1022.1,385.287 1022.77,386.62 1022.5,388.5C 1020.9,387.713 1020.23,386.38 1020.5,384.5 Z"/></g>
<g><path style="opacity:0.561" fill="#7e7e7e" d="M 559.5,384.5 C 561.008,386.181 562.008,388.181 562.5,390.5C 560.461,389.089 559.461,387.089 559.5,384.5 Z"/></g>
<g><path style="opacity:0.449" fill="#6a6a6a" d="M 642.5,384.5 C 643.147,385.274 643.48,386.274 643.5,387.5C 643.66,389.355 642.993,390.688 641.5,391.5C 641.448,389.097 641.781,386.764 642.5,384.5 Z"/></g>
<g><path style="opacity:0.055" fill="#878787" d="M 729.5,379.5 C 730.117,379.611 730.617,379.944 731,380.5C 732.416,385.412 733.249,390.412 733.5,395.5C 731.538,390.46 730.205,385.126 729.5,379.5 Z"/></g>
<g><path style="opacity:0.055" fill="#969696" d="M 1044.5,388.5 C 1046.16,390.438 1046.83,392.772 1046.5,395.5C 1045.08,393.485 1044.41,391.152 1044.5,388.5 Z"/></g>
<g><path style="opacity:0.431" fill="#6d6d6d" d="M 1159.5,387.5 C 1161.49,413.812 1162.16,440.479 1161.5,467.5C 1160.83,442.167 1160.17,416.833 1159.5,391.5C 1159.5,390.167 1159.5,388.833 1159.5,387.5 Z"/></g>
<g><path style="opacity:0.859" fill="#202020" d="M 1160.5,382.5 C 1161.29,383.609 1161.79,384.942 1162,386.5C 1162.5,413.498 1162.67,440.498 1162.5,467.5C 1162.17,467.5 1161.83,467.5 1161.5,467.5C 1162.16,440.479 1161.49,413.812 1159.5,387.5C 1159.5,386.833 1159.5,386.167 1159.5,385.5C 1160.4,384.791 1160.74,383.791 1160.5,382.5 Z"/></g>
<g><path style="opacity:0.314" fill="#7f7f7f" d="M 540.5,392.5 C 541.601,393.848 542.601,395.348 543.5,397C 543.272,397.399 542.938,397.565 542.5,397.5C 541.069,396.22 540.402,394.553 540.5,392.5 Z"/></g>
<g><path style="opacity:0.055" fill="#828282" d="M 750.5,375.5 C 753.49,380.979 755.323,386.979 756,393.5C 757.034,403.98 756.534,414.313 754.5,424.5C 753.957,424.44 753.624,424.107 753.5,423.5C 755.428,414.604 755.928,405.604 755,396.5C 753.675,389.369 752.175,382.369 750.5,375.5 Z"/></g>
<g><path style="opacity:0.561" fill="#6c6c6c" d="M 1022.5,391.5 C 1023.99,392.312 1024.66,393.645 1024.5,395.5C 1024.48,396.726 1024.15,397.726 1023.5,398.5C 1022.63,396.283 1022.3,393.95 1022.5,391.5 Z"/></g>
<g><path style="opacity:0.314" fill="#868686" d="M 641.5,392.5 C 642.139,393.097 642.472,393.93 642.5,395C 642.028,398.677 641.362,402.177 640.5,405.5C 640.372,401.119 640.705,396.785 641.5,392.5 Z"/></g>
<g><path style="opacity:0.561" fill="#666666" d="M 542.5,398.5 C 543.496,398.414 544.329,398.748 545,399.5C 546.298,400.946 546.465,402.279 545.5,403.5C 544.752,401.668 543.752,400.001 542.5,398.5 Z"/></g>
<g><path style="opacity:0.314" fill="#7e7e7e" d="M 562.5,390.5 C 565.194,394.557 567.527,398.89 569.5,403.5C 565.936,399.909 563.602,395.575 562.5,390.5 Z"/></g>
<g><path style="opacity:0.314" fill="#979797" d="M 1046.5,400.5 C 1046.76,404.68 1046.76,408.68 1046.5,412.5C 1045.17,408.5 1045.17,404.5 1046.5,400.5 Z"/></g>
<g><path style="opacity:0.314" fill="#848484" d="M 954.5,393.5 C 953.496,401.186 953.496,408.853 954.5,416.5C 953.178,413.232 952.511,409.565 952.5,405.5C 952.667,401.833 952.833,398.167 953,394.5C 953.383,393.944 953.883,393.611 954.5,393.5 Z"/></g>
<g><path style="opacity:0.11" fill="#919191" d="M 569.5,403.5 C 571.539,404.911 572.539,406.911 572.5,409.5C 570.992,407.819 569.992,405.819 569.5,403.5 Z"/></g>
<g><path style="opacity:0.561" fill="#848484" d="M 545.5,404.5 C 548.654,406.124 550.321,408.791 550.5,412.5C 548.847,409.869 547.181,407.203 545.5,404.5 Z"/></g>
<g><path style="opacity:0.561" fill="#7a7a7a" d="M 572.5,409.5 C 573.401,410.29 574.068,411.29 574.5,412.5C 572.952,412.179 572.285,411.179 572.5,409.5 Z"/></g>
<g><path style="opacity:0.314" fill="#838383" d="M 640.5,406.5 C 641.341,410.162 642.008,413.995 642.5,418C 642.472,419.07 642.139,419.903 641.5,420.5C 640.686,415.881 640.353,411.214 640.5,406.5 Z"/></g>
<g><path style="opacity:0.651" fill="#767676" d="M 931.5,392.5 C 931.4,402.324 931.9,412.324 933,422.5C 934.499,428.496 935.999,434.496 937.5,440.5C 936.883,440.389 936.383,440.056 936,439.5C 930.721,424.398 929.221,408.732 931.5,392.5 Z"/></g>
<g><path style="opacity:0.055" fill="#949494" d="M 550.5,412.5 C 551.401,413.29 552.068,414.29 552.5,415.5C 550.952,415.179 550.285,414.179 550.5,412.5 Z"/></g>
<g><path style="opacity:0.314" fill="#8c8c8c" d="M 574.5,412.5 C 576.008,414.181 577.008,416.181 577.5,418.5C 575.461,417.089 574.461,415.089 574.5,412.5 Z"/></g>
<g><path style="opacity:0.055" fill="#858585" d="M 733.5,415.5 C 734.124,415.917 734.457,416.584 734.5,417.5C 733.778,421.306 732.445,424.64 730.5,427.5C 731.132,423.416 732.132,419.416 733.5,415.5 Z"/></g>
<g><path style="opacity:0.055" fill="#8b8b8b" d="M 1046.5,417.5 C 1046.95,420.01 1046.28,422.01 1044.5,423.5C 1044.05,420.99 1044.72,418.99 1046.5,417.5 Z"/></g>
<g><path style="opacity:1" fill="#7c7c7c" d="M 242.5,419.5 C 243.906,419.973 244.573,420.973 244.5,422.5C 243.094,422.027 242.427,421.027 242.5,419.5 Z"/></g>
<g><path style="opacity:0.431" fill="#777777" d="M 553.5,419.5 C 554.5,419.5 555.5,419.5 556.5,419.5C 557.492,422.823 558.492,426.156 559.5,429.5C 557.528,426.235 555.528,422.902 553.5,419.5 Z"/></g>
<g><path style="opacity:0.431" fill="#7f7f7f" d="M 577.5,418.5 C 579.387,420.789 580.721,423.455 581.5,426.5C 579.229,424.388 577.896,421.721 577.5,418.5 Z"/></g>
<g><path style="opacity:0.055" fill="#7d7d7d" d="M 1023.5,414.5 C 1024.62,416.288 1024.79,418.288 1024,420.5C 1022.67,425.167 1021.33,429.833 1020,434.5C 1019.62,435.056 1019.12,435.389 1018.5,435.5C 1020.49,428.535 1022.16,421.535 1023.5,414.5 Z"/></g>
<g><path style="opacity:0.449" fill="#6e6e6e" d="M 754.5,425.5 C 754.067,428.166 753.567,430.832 753,433.5C 752.617,434.056 752.117,434.389 751.5,434.5C 751.933,431.834 752.433,429.168 753,426.5C 753.383,425.944 753.883,425.611 754.5,425.5 Z"/></g>
<g><path style="opacity:0.651" fill="#737373" d="M 665.5,424.5 C 665.629,426.216 665.962,427.883 666.5,429.5C 664.403,428.121 664.07,426.455 665.5,424.5 Z"/></g>
<g><path style="opacity:0.431" fill="#747474" d="M 1044.5,426.5 C 1043.96,428.117 1043.63,429.784 1043.5,431.5C 1042.07,429.545 1042.4,427.879 1044.5,426.5 Z"/></g>
<g><path style="opacity:0.055" fill="#898989" d="M 581.5,426.5 C 583.539,427.911 584.539,429.911 584.5,432.5C 582.992,430.819 581.992,428.819 581.5,426.5 Z"/></g>
<g><path style="opacity:0.055" fill="#8e8e8e" d="M 1159.5,391.5 C 1160.17,416.833 1160.83,442.167 1161.5,467.5C 1161.83,467.5 1162.17,467.5 1162.5,467.5C 1169.17,467.5 1175.83,467.5 1182.5,467.5C 1179.4,468.821 1175.9,469.488 1172,469.5C 1168.11,469.467 1164.28,469.133 1160.5,468.5C 1159.5,442.842 1159.17,417.175 1159.5,391.5 Z"/></g>
<g><path style="opacity:0.196" fill="#818181" d="M 954.5,419.5 C 955.363,424.997 956.696,430.33 958.5,435.5C 954.636,430.712 953.303,425.379 954.5,419.5 Z"/></g>
<g><path style="opacity:0.561" fill="#818181" d="M 641.5,422.5 C 644.161,428.806 646.495,435.473 648.5,442.5C 646.227,439.149 644.393,435.482 643,431.5C 642.498,428.487 641.998,425.487 641.5,422.5 Z"/></g>
<g><path style="opacity:0.055" fill="#7f7f7f" d="M 666.5,431.5 C 668.816,435.372 671.15,439.372 673.5,443.5C 669.637,440.446 667.303,436.446 666.5,431.5 Z"/></g>
<g><path style="opacity:0.431" fill="#808080" d="M 559.5,429.5 C 564.473,435.778 568.139,442.778 570.5,450.5C 566.597,443.697 562.93,436.697 559.5,429.5 Z"/></g>
<g><path style="opacity:0.196" fill="#949494" d="M 1018.5,435.5 C 1018.25,437.674 1017.25,439.341 1015.5,440.5C 1015.75,438.326 1016.75,436.659 1018.5,435.5 Z"/></g>
<g><path style="opacity:0.11" fill="#858585" d="M 727.5,436.5 C 727.826,439.95 726.159,442.616 722.5,444.5C 723.967,441.636 725.633,438.969 727.5,436.5 Z"/></g>
<g><path style="opacity:0.314" fill="#838383" d="M 959.5,437.5 C 961.543,438.579 962.876,440.246 963.5,442.5C 961.469,441.461 960.136,439.795 959.5,437.5 Z"/></g>
<g><path style="opacity:0.055" fill="#8a8a8a" d="M 19.5,436.5 C 21.5743,439.443 23.5743,442.61 25.5,446C 25.2716,446.399 24.9382,446.565 24.5,446.5C 22.0865,443.627 20.4199,440.294 19.5,436.5 Z"/></g>
<g><path style="opacity:0.055" fill="#888888" d="M 751.5,436.5 C 750.722,439.539 749.388,442.206 747.5,444.5C 747.912,441.198 749.245,438.531 751.5,436.5 Z"/></g>
<g><path style="opacity:0.431" fill="#838383" d="M 937.5,440.5 C 939.539,441.911 940.539,443.911 940.5,446.5C 938.992,444.819 937.992,442.819 937.5,440.5 Z"/></g>
<g><path style="opacity:0.11" fill="#898989" d="M 1043.5,432.5 C 1041.91,436.457 1040.25,440.457 1038.5,444.5C 1038.04,445.298 1037.38,445.631 1036.5,445.5C 1038.12,440.586 1040.45,436.252 1043.5,432.5 Z"/></g>
<g><path style="opacity:0.431" fill="#6c6c6c" d="M 1014.5,441.5 C 1013.17,444.833 1010.83,447.167 1007.5,448.5C 1009.5,445.833 1011.83,443.5 1014.5,441.5 Z"/></g>
<g><path style="opacity:0.431" fill="#787878" d="M 722.5,444.5 C 721.375,446.129 720.041,447.629 718.5,449C 714.99,450.518 711.49,452.018 708,453.5C 707.235,453.43 706.735,453.097 706.5,452.5C 712.15,450.399 717.483,447.732 722.5,444.5 Z"/></g>
<g><path style="opacity:1" fill="#7c7c7c" d="M 258.5,444.5 C 259.906,444.973 260.573,445.973 260.5,447.5C 259.094,447.027 258.427,446.027 258.5,444.5 Z"/></g>
<g><path style="opacity:0.314" fill="#7d7d7d" d="M 648.5,442.5 C 650.588,444.336 651.921,446.669 652.5,449.5C 650.058,447.879 648.725,445.546 648.5,442.5 Z"/></g>
<g><path style="opacity:0.812" fill="#525252" d="M 673.5,443.5 C 677.583,446.196 681.583,448.863 685.5,451.5C 680.163,450.828 676.163,448.161 673.5,443.5 Z"/></g>
<g><path style="opacity:0.173" fill="#515151" d="M 846.5,469.5 C 847.99,467.72 849.99,467.054 852.5,467.5C 852.5,461.5 852.5,455.5 852.5,449.5C 850.309,450.291 848.309,450.291 846.5,449.5C 848.599,448.388 850.933,447.721 853.5,447.5C 853.5,454.5 853.5,461.5 853.5,468.5C 851.139,468.674 848.806,469.007 846.5,469.5 Z"/></g>
<g><path style="opacity:0.055" fill="#808080" d="M 940.5,446.5 C 942.262,447.262 943.262,448.596 943.5,450.5C 941.738,449.738 940.738,448.404 940.5,446.5 Z"/></g>
<g><path style="opacity:1" fill="#939393" d="M 190.5,447.5 C 194.163,447.952 197.83,448.452 201.5,449C 202.416,449.278 203.082,449.778 203.5,450.5C 198.876,450.237 194.542,449.237 190.5,447.5 Z"/></g>
<g><path style="opacity:0.055" fill="#868686" d="M 745.5,447.5 C 745.279,449.664 744.279,451.33 742.5,452.5C 742.721,450.336 743.721,448.67 745.5,447.5 Z"/></g>
<g><path style="opacity:0.11" fill="#909090" d="M 816.5,448.5 C 819.241,448.707 821.574,449.707 823.5,451.5C 820.654,451.448 818.32,450.448 816.5,448.5 Z"/></g>
<g><path style="opacity:0.055" fill="#7b7b7b" d="M 971.5,448.5 C 973.455,448.799 974.789,449.799 975.5,451.5C 973.027,451.912 971.694,450.912 971.5,448.5 Z"/></g>
<g><path style="opacity:0.055" fill="#7a7a7a" d="M 1036.5,445.5 C 1036.35,449.141 1034.68,451.807 1031.5,453.5C 1033.12,450.864 1034.79,448.197 1036.5,445.5 Z"/></g>
<g><path style="opacity:0.431" fill="#818181" d="M 24.5,447.5 C 26.0174,447.511 27.1841,448.177 28,449.5C 29.1932,451.886 30.3599,454.22 31.5,456.5C 28.9362,453.72 26.6029,450.72 24.5,447.5 Z"/></g>
<g><path style="opacity:0.055" fill="#828282" d="M 788.5,442.5 C 791.373,447.058 793.707,452.058 795.5,457.5C 793.177,454.865 791.344,451.865 790,448.5C 789.685,446.414 789.185,444.414 788.5,442.5 Z"/></g>
<g><path style="opacity:0.725" fill="#4f4f4f" d="M 844.5,449.5 C 844.5,450.5 844.5,451.5 844.5,452.5C 842.265,452.795 840.265,452.461 838.5,451.5C 840.685,451.296 842.685,450.63 844.5,449.5 Z"/></g>
<g><path style="opacity:0.431" fill="#7b7b7b" d="M 687.5,451.5 C 688.609,451.557 689.609,451.89 690.5,452.5C 689.221,453.715 688.221,453.382 687.5,451.5 Z"/></g>
<g><path style="opacity:0.11" fill="#818181" d="M 943.5,450.5 C 945.587,451.585 946.92,453.251 947.5,455.5C 945.413,454.415 944.08,452.749 943.5,450.5 Z"/></g>
<g><path style="opacity:0.561" fill="#737373" d="M 976.5,451.5 C 977.959,451.433 979.292,451.766 980.5,452.5C 978.872,453.853 977.538,453.519 976.5,451.5 Z"/></g>
<g><path style="opacity:0.431" fill="#5a5a5a" d="M 1007.5,448.5 C 1004.53,452.226 1000.87,453.559 996.5,452.5C 1000.17,451.153 1003.84,449.82 1007.5,448.5 Z"/></g>
<g><path style="opacity:0.055" fill="#878787" d="M 653.5,450.5 C 655.262,451.262 656.262,452.596 656.5,454.5C 654.554,453.965 653.554,452.632 653.5,450.5 Z"/></g>
<g><path style="opacity:0.561" fill="#636363" d="M 691.5,452.5 C 696.167,452.5 700.833,452.5 705.5,452.5C 705.389,453.117 705.056,453.617 704.5,454C 700.5,454.667 696.5,454.667 692.5,454C 691.944,453.617 691.611,453.117 691.5,452.5 Z"/></g>
<g><path style="opacity:0.561" fill="#686868" d="M 982.5,452.5 C 986.833,452.5 991.167,452.5 995.5,452.5C 993.777,453.8 991.61,454.467 989,454.5C 986.39,454.467 984.223,453.8 982.5,452.5 Z"/></g>
<g><path style="opacity:0.055" fill="#919191" d="M 742.5,452.5 C 742.043,454.773 740.71,456.106 738.5,456.5C 739.402,454.659 740.736,453.326 742.5,452.5 Z"/></g>
<g><path style="opacity:0.055" fill="#979797" d="M 1031.5,453.5 C 1031.5,455.5 1030.5,456.5 1028.5,456.5C 1029.17,455.167 1030.17,454.167 1031.5,453.5 Z"/></g>
<g><path style="opacity:0.055" fill="#959595" d="M 738.5,456.5 C 738.5,458.5 737.5,459.5 735.5,459.5C 736.167,458.167 737.167,457.167 738.5,456.5 Z"/></g>
<g><path style="opacity:0.055" fill="#888888" d="M 31.5,456.5 C 33.5311,457.539 34.8645,459.205 35.5,461.5C 33.457,460.421 32.1237,458.754 31.5,456.5 Z"/></g>
<g><path style="opacity:0.561" fill="#787878" d="M 660.5,458.5 C 662.23,459.026 663.564,460.026 664.5,461.5C 662.368,461.446 661.035,460.446 660.5,458.5 Z"/></g>
<g><path style="opacity:0.561" fill="#626262" d="M 947.5,456.5 C 948.552,456.351 949.552,456.517 950.5,457C 951.699,458.694 953.032,460.194 954.5,461.5C 951.58,460.569 949.247,458.903 947.5,456.5 Z"/></g>
<g><path style="opacity:0.055" fill="#7c7c7c" d="M 570.5,450.5 C 573.879,455.431 577.213,460.598 580.5,466C 580.272,466.399 579.938,466.565 579.5,466.5C 575.702,461.681 572.702,456.348 570.5,450.5 Z"/></g>
<g><path style="opacity:0.455" fill="#5e5e5e" d="M 735.5,459.5 C 734.109,461.89 732.109,463.557 729.5,464.5C 730.467,461.542 732.467,459.875 735.5,459.5 Z"/></g>
<g><path style="opacity:0.055" fill="#8d8d8d" d="M 796.5,458.5 C 797.833,459.167 798.833,460.167 799.5,461.5C 797.5,461.5 796.5,460.5 796.5,458.5 Z"/></g>
<g><path style="opacity:0.055" fill="#727272" d="M 1024.5,460.5 C 1023.42,462.543 1021.75,463.876 1019.5,464.5C 1020.26,462.071 1021.93,460.738 1024.5,460.5 Z"/></g>
<g><path style="opacity:0.314" fill="#838383" d="M 35.5,462.5 C 38.6209,463.288 40.2876,465.288 40.5,468.5C 38.863,466.525 37.1964,464.525 35.5,462.5 Z"/></g>
<g><path style="opacity:0.898" fill="#525252" d="M 664.5,461.5 C 666.58,462.044 668.58,462.878 670.5,464C 669.944,464.383 669.611,464.883 669.5,465.5C 667.111,465.021 665.444,463.688 664.5,461.5 Z"/></g>
<g><path style="opacity:0.314" fill="#787878" d="M 954.5,461.5 C 956.795,462.136 958.461,463.469 959.5,465.5C 957.246,464.876 955.579,463.543 954.5,461.5 Z"/></g>
<g><path style="opacity:0.431" fill="#727272" d="M 799.5,461.5 C 801.754,462.124 803.421,463.457 804.5,465.5C 801.796,465.33 800.129,463.997 799.5,461.5 Z"/></g>
<g><path style="opacity:1" fill="#787878" d="M 275.5,463.5 C 280.414,464.707 285.414,465.374 290.5,465.5C 287.36,466.641 284.027,466.808 280.5,466C 278.347,465.901 276.681,465.067 275.5,463.5 Z"/></g>
<g><path style="opacity:0.314" fill="#828282" d="M 804.5,465.5 C 807.802,465.912 810.469,467.245 812.5,469.5C 809.279,469.104 806.612,467.771 804.5,465.5 Z"/></g>
<g><path style="opacity:0.055" fill="#8d8d8d" d="M 960.5,465.5 C 961.833,465.5 962.5,466.167 962.5,467.5C 961.167,467.5 960.5,466.833 960.5,465.5 Z"/></g>
<g><path style="opacity:1" fill="#919191" d="M 175.5,466.5 C 173.369,467.314 171.036,467.814 168.5,468C 159.173,468.5 149.839,468.666 140.5,468.5C 151.998,467.571 163.665,466.904 175.5,466.5 Z"/></g>
<g><path style="opacity:0.455" fill="#484848" d="M 670.5,465.5 C 673.647,465.737 676.647,466.57 679.5,468C 681.324,468.66 682.657,469.827 683.5,471.5C 680.308,470.078 676.975,468.911 673.5,468C 672.058,467.623 671.058,466.79 670.5,465.5 Z"/></g>
<g><path style="opacity:0.173" fill="#6b6b6b" d="M 725.5,466.5 C 724.312,467.364 723.145,468.364 722,469.5C 721.014,468.829 719.847,468.829 718.5,469.5C 720.09,467.179 722.423,466.179 725.5,466.5 Z"/></g>
<g><path style="opacity:0.173" fill="#696969" d="M 968.5,469.5 C 966.597,469.204 964.93,468.537 963.5,467.5C 963.56,466.957 963.893,466.624 964.5,466.5C 966.483,466.815 967.816,467.815 968.5,469.5 Z"/></g>
<g><path style="opacity:0.455" fill="#5d5d5d" d="M 1016.5,465.5 C 1015.36,467.088 1013.86,468.421 1012,469.5C 1011.01,468.829 1009.85,468.829 1008.5,469.5C 1008.58,468.25 1009.24,467.417 1010.5,467C 1012.59,466.685 1014.59,466.185 1016.5,465.5 Z"/></g>
<g><path style="opacity:0.055" fill="#838383" d="M 579.5,467.5 C 588.5,467.5 597.5,467.5 606.5,467.5C 607.167,467.5 607.833,467.5 608.5,467.5C 608.389,468.117 608.056,468.617 607.5,469C 598.5,469.667 589.5,469.667 580.5,469C 579.944,468.617 579.611,468.117 579.5,467.5 Z"/></g>
<g><path style="opacity:0.357" fill="#626262" d="M 970.5,469.5 C 976.259,469.62 981.592,470.62 986.5,472.5C 984.208,472.244 982.041,472.577 980,473.5C 976.627,472.329 973.46,470.995 970.5,469.5 Z"/></g>
<g><path style="opacity:0.541" fill="#555555" d="M 710.5,471.5 C 707.637,472.266 704.304,472.599 700.5,472.5C 701.694,471.223 703.36,470.556 705.5,470.5C 707.369,470.507 709.036,470.84 710.5,471.5 Z"/></g>
<g><path style="opacity:0.055" fill="#919191" d="M 716.5,469.5 C 716.027,470.906 715.027,471.573 713.5,471.5C 713.821,469.952 714.821,469.285 716.5,469.5 Z"/></g>
<g><path style="opacity:0.314" fill="#808080" d="M 815.5,469.5 C 820.668,469.934 825.668,470.6 830.5,471.5C 828.895,472.17 827.061,472.503 825,472.5C 822.26,471.718 819.426,471.218 816.5,471C 815.944,470.617 815.611,470.117 815.5,469.5 Z"/></g>
<g><path style="opacity:0.055" fill="#8c8c8c" d="M 842.5,469.5 C 841.365,471.213 839.698,471.88 837.5,471.5C 838.552,469.744 840.219,469.077 842.5,469.5 Z"/></g>
<g><path style="opacity:0.504" fill="#535353" d="M 1000.5,471.5 C 997.713,472.477 994.713,472.81 991.5,472.5C 992.514,471.235 994.014,470.569 996,470.5C 997.707,470.508 999.207,470.842 1000.5,471.5 Z"/></g>
<g><path style="opacity:0.055" fill="#909090" d="M 1006.5,469.5 C 1006.03,470.906 1005.03,471.573 1003.5,471.5C 1003.82,469.952 1004.82,469.285 1006.5,469.5 Z"/></g>
<g><path style="opacity:0.055" fill="#6f6f6f" d="M 695.5,472.5 C 692.287,472.81 689.287,472.477 686.5,471.5C 687.793,470.842 689.293,470.508 691,470.5C 692.986,470.569 694.486,471.235 695.5,472.5 Z"/></g>
<g><path style="opacity:0.11" fill="#848484" d="M 50.5,480.5 C 52.543,481.579 53.8763,483.246 54.5,485.5C 52.4689,484.461 51.1355,482.795 50.5,480.5 Z"/></g>
<g><path style="opacity:0.11" fill="#929292" d="M 54.5,486.5 C 55.8333,486.5 56.5,487.167 56.5,488.5C 55.5266,488.013 54.5266,487.513 53.5,487C 53.7284,486.601 54.0618,486.435 54.5,486.5 Z"/></g>
<g><path style="opacity:0.055" fill="#828282" d="M 56.5,488.5 C 58.2624,489.262 59.2624,490.596 59.5,492.5C 57.7376,491.738 56.7376,490.404 56.5,488.5 Z"/></g>
<g><path style="opacity:1" fill="#a7a7a7" d="M 336.5,491.5 C 326.667,492.405 316.667,493.071 306.5,493.5C 308.292,492.691 310.292,492.191 312.5,492C 320.493,491.5 328.493,491.334 336.5,491.5 Z"/></g>
<g><path style="opacity:0.11" fill="#919191" d="M 59.5,492.5 C 61.5869,493.585 62.9202,495.251 63.5,497.5C 61.4131,496.415 60.0798,494.749 59.5,492.5 Z"/></g>
<g><path style="opacity:1" fill="#b7b7b7" d="M 258.5,495.5 C 251.67,496.426 244.67,497.093 237.5,497.5C 237.167,497.5 236.833,497.5 236.5,497.5C 237.952,496.698 239.618,496.198 241.5,496C 247.157,495.501 252.824,495.334 258.5,495.5 Z"/></g>
<g><path style="opacity:1" fill="#525252" d="M 236.5,497.5 C 236.833,497.5 237.167,497.5 237.5,497.5C 227.674,498.494 217.674,499.161 207.5,499.5C 207.5,499.167 207.5,498.833 207.5,498.5C 217.151,497.801 226.817,497.468 236.5,497.5 Z"/></g>
<g><path style="opacity:1" fill="#bdbdbd" d="M 207.5,498.5 C 207.5,498.833 207.5,499.167 207.5,499.5C 197.162,499.716 186.829,500.049 176.5,500.5C 174.833,500.5 173.167,500.5 171.5,500.5C 183.31,499.177 195.31,498.511 207.5,498.5 Z"/></g>
<g><path style="opacity:0.651" fill="#757575" d="M 65.5,500.5 C 67.0481,500.821 67.7148,501.821 67.5,503.5C 66.5987,502.71 65.9321,501.71 65.5,500.5 Z"/></g>
<g><path style="opacity:1" fill="#404040" d="M 171.5,500.5 C 173.167,500.5 174.833,500.5 176.5,500.5C 169.721,501.983 162.721,502.65 155.5,502.5C 155.5,502.167 155.5,501.833 155.5,501.5C 160.854,501.431 166.187,501.098 171.5,500.5 Z"/></g>
<g><path style="opacity:1" fill="#777777" d="M 155.5,501.5 C 155.5,501.833 155.5,502.167 155.5,502.5C 145.516,503.213 135.516,503.547 125.5,503.5C 135.326,502.506 145.326,501.839 155.5,501.5 Z"/></g>
<g><path style="opacity:1" fill="#979797" d="M 101.5,501.5 C 107.713,503.102 114.046,503.768 120.5,503.5C 116.354,504.647 112.02,504.814 107.5,504C 105.026,503.963 103.026,503.13 101.5,501.5 Z"/></g>
<g><path style="opacity:0.11" fill="#8a8a8a" d="M 396.5,500.5 C 396.341,504.674 394.675,508.008 391.5,510.5C 393.175,507.123 394.842,503.789 396.5,500.5 Z"/></g>
<g><path style="opacity:0.055" fill="#7b7b7b" d="M 67.5,503.5 C 71.8736,506.548 75.207,510.548 77.5,515.5C 73.8197,511.817 70.4864,507.817 67.5,503.5 Z"/></g>
<g><path style="opacity:0.898" fill="#4a4a4a" d="M 390.5,511.5 C 389.415,513.587 387.749,514.92 385.5,515.5C 385.787,512.516 387.454,511.183 390.5,511.5 Z"/></g>
<g><path style="opacity:0.898" fill="#4d4d4d" d="M 384.5,515.5 C 382.967,517.245 380.967,518.245 378.5,518.5C 378.5,517.5 378.5,516.5 378.5,515.5C 380.5,515.5 382.5,515.5 384.5,515.5 Z"/></g>
<g><path style="opacity:0.055" fill="#929292" d="M 77.5,516.5 C 79.2644,517.326 80.5977,518.659 81.5,520.5C 79.2901,520.106 77.9568,518.773 77.5,516.5 Z"/></g>
<g><path style="opacity:0.898" fill="#2c2c2c" d="M 376.5,518.5 C 373.801,518.466 371.301,519.133 369,520.5C 365.996,519.609 362.83,519.275 359.5,519.5C 356.15,519.335 352.817,519.502 349.5,520C 348.263,520.232 347.263,520.732 346.5,521.5C 343.833,521.5 341.167,521.5 338.5,521.5C 338.158,520.662 337.492,520.328 336.5,520.5C 348.29,518.886 360.29,517.886 372.5,517.5C 374.045,517.511 375.378,517.844 376.5,518.5 Z"/></g>
<g><path style="opacity:0.431" fill="#747474" d="M 336.5,520.5 C 337.492,520.328 338.158,520.662 338.5,521.5C 335.572,521.852 332.738,522.518 330,523.5C 328.157,523.561 326.323,523.227 324.5,522.5C 324.611,521.883 324.944,521.383 325.5,521C 329.152,520.501 332.818,520.335 336.5,520.5 Z"/></g>
<g><path style="opacity:0.055" fill="#919191" d="M 359.5,519.5 C 355.455,521.177 351.122,521.844 346.5,521.5C 347.263,520.732 348.263,520.232 349.5,520C 352.817,519.502 356.15,519.335 359.5,519.5 Z"/></g>
<g><path style="opacity:0.965" fill="#4f4f4f" d="M 81.5,521.5 C 84.179,521.525 85.5123,522.858 85.5,525.5C 83.7356,524.674 82.4023,523.341 81.5,521.5 Z"/></g>
<g><path style="opacity:0.196" fill="#888888" d="M 318.5,522.5 C 313.213,523.342 307.88,523.676 302.5,523.5C 305.55,522.065 308.883,521.398 312.5,521.5C 314.696,521.505 316.696,521.838 318.5,522.5 Z"/></g>
<g><path style="opacity:0.561" fill="#717171" d="M 294.5,523.5 C 293.391,524.29 292.058,524.79 290.5,525C 283.253,525.185 276.087,525.685 269,526.5C 268.667,526.167 268.333,525.833 268,525.5C 263.784,526.804 259.617,527.137 255.5,526.5C 255.611,525.883 255.944,525.383 256.5,525C 269.163,524.349 281.83,523.849 294.5,523.5 Z"/></g>
<g><path style="opacity:0.196" fill="#7e7e7e" d="M 250.5,526.5 C 245.203,527.275 239.87,527.608 234.5,527.5C 237.55,526.065 240.883,525.398 244.5,525.5C 246.696,525.505 248.696,525.838 250.5,526.5 Z"/></g>
<g><path style="opacity:0.055" fill="#8e8e8e" d="M 87.5,527.5 C 89.2303,528.026 90.5637,529.026 91.5,530.5C 89.368,530.446 88.0347,529.446 87.5,527.5 Z"/></g>
<g><path style="opacity:0.431" fill="#737373" d="M 227.5,527.5 C 221.15,528.88 214.65,529.88 208,530.5C 201.736,529.697 194.903,529.697 187.5,530.5C 187.918,529.778 188.584,529.278 189.5,529C 202.163,528.349 214.83,527.849 227.5,527.5 Z"/></g>
<g><path style="opacity:0.807" fill="#525252" d="M 152.5,531.5 C 161.318,530.507 170.318,530.173 179.5,530.5C 173.433,531.185 167.266,531.851 161,532.5C 160.617,531.944 160.117,531.611 159.5,531.5C 157.167,531.5 154.833,531.5 152.5,531.5 Z"/></g>
<g><path style="opacity:0.173" fill="#5a5a5a" d="M 91.5,530.5 C 94.7209,531.505 98.0543,532.339 101.5,533C 102.056,533.383 102.389,533.883 102.5,534.5C 98.2133,534.524 94.5467,533.19 91.5,530.5 Z"/></g>
<g><path style="opacity:0.055" fill="#919191" d="M 152.5,531.5 C 154.833,531.5 157.167,531.5 159.5,531.5C 158.122,532.234 156.622,532.901 155,533.5C 152.379,533.296 149.545,533.296 146.5,533.5C 147.918,531.692 149.918,531.025 152.5,531.5 Z"/></g>
<g><path style="opacity:0.196" fill="#898989" d="M 135.5,533.5 C 130.497,534.244 125.164,534.578 119.5,534.5C 122.55,533.065 125.883,532.398 129.5,532.5C 131.696,532.505 133.696,532.838 135.5,533.5 Z"/></g>
</svg>