<?xml version="1.0" encoding="utf-8"?>
<!-- Generator: Adobe Illustrator 19.0.0, SVG Export Plug-In . SVG Version: 6.00 Build 0)  -->
<svg version="1.1" id="layer" xmlns="http://www.w3.org/2000/svg" xmlns:xlink="http://www.w3.org/1999/xlink" x="0px" y="0px"
	 viewBox="-153 -46 652 652" style="enable-background:new -153 -46 652 652;" xml:space="preserve">
<style type="text/css">
	.st0{fill:#47B972;}
	.st1{fill:#FFFFFF;}
	.st2{fill:#111111;}
</style>
<path class="st0" d="M-126.5,207h144v144h-144V207z"/>
<path class="st1" d="M-20.9,259.8h-0.4c-3.4-2.8-7.7-4.3-12.1-4.2c-6.2-0.1-12.2,2.6-16.3,7.2l5.9,6.6c2.7-2.9,6.5-4.5,10.5-4.6
	c7.3,0.2,13.1,6.2,13,13.5c0,0.3,0,0.6,0,0.9c0.6,7.3-4.8,13.7-12,14.3c-0.4,0-0.8,0.1-1.2,0.1c-20,0-14.4-37.6-41.2-37.6
	c-12.4-0.3-22.6,9.5-22.9,21.9c0,0.3,0,0.7,0,1v40.8h9.6v-21.6h0.4c3.4,2.8,7.7,4.3,12.1,4.2c6.3,0.2,12.4-2.4,16.6-7.1l-6.2-6.7
	c-2.7,2.9-6.5,4.5-10.5,4.6c-7.3-0.1-13.1-6.1-13-13.4c0-0.3,0-0.6,0.1-1c-0.6-7.3,4.8-13.7,12-14.3c0.4,0,0.8-0.1,1.2-0.1
	c20,0,14.4,37.6,41.2,37.6c12.4,0.3,22.6-9.5,22.9-21.9c0-0.5,0-0.9,0-1.4v-40.5h-9.6V259.8z"/>
<path class="st2" d="M80.9,242.5h-25v63.9h10.5v-24.9h14.4c15,0,23.1-7.3,23.1-19.5C103.9,249.9,95.7,242.5,80.9,242.5z M80.9,271.3
	H66.5v-19.2h14.4c8.3,0,12.2,3.1,12.2,9.6s-4.1,9.8-12.4,9.8L80.9,271.3z M141.4,262.8v5.2c-3.2-4.1-8.2-6.5-13.5-6.3
	c-12.1,0-21.9,9.9-21.9,22c0,0.3,0,0.6,0,0.9c-0.7,12.1,8.6,22.5,20.8,23.2c0.4,0,0.7,0,1.1,0c5.3,0.2,10.4-2.2,13.7-6.4v5.2h9.6
	v-43.8H141.4z M128.6,298.7c-7.3,0-13.2-5.9-13.2-13.1c0-0.3,0-0.7,0-1c-0.6-7.3,4.8-13.7,12-14.3c7.3-0.6,13.7,4.8,14.3,12
	c0.1,0.7,0.1,1.5,0,2.2c0.6,7.2-4.8,13.5-12,14.1C129.4,298.7,129,298.7,128.6,298.7z M202.3,279v27.6h-9.6v-24.5
	c0-7.3-3.9-11.4-10.3-11.4c-6-0.3-11.1,4.3-11.3,10.3c0,0.4,0,0.8,0,1.2v24.3h-9.6v-43.8h9.6v5.4c3.1-4.4,8.2-6.8,13.5-6.5
	c9.3-0.5,17.2,6.7,17.7,16C202.3,278.1,202.3,278.6,202.3,279z M244.1,240.6V268c-3.3-4.2-8.4-6.6-13.7-6.3
	c-12.1,0-22,9.9-21.9,22.1c0,0.3,0,0.6,0,0.9c-0.7,12.1,8.6,22.5,20.8,23.2c0.4,0,0.8,0,1.1,0c5.3,0.2,10.4-2.2,13.7-6.4v5.2h9.6
	v-66H244.1z M231.3,298.7c-7.3,0-13.2-5.9-13.2-13.1c0-0.3,0-0.7,0-1c-0.6-7.3,4.8-13.7,12-14.3c7.3-0.6,13.7,4.8,14.3,12
	c0.1,0.7,0.1,1.5,0,2.2c0.6,7.2-4.8,13.5-12,14.1C232.1,298.7,231.7,298.7,231.3,298.7z M296.7,262.8v5.2c-3.3-4.2-8.4-6.6-13.7-6.3
	c-12.1,0-21.9,9.9-21.9,22c0,0.3,0,0.6,0,0.9c-0.7,12.1,8.6,22.5,20.8,23.2c0.4,0,0.7,0,1.1,0c5.3,0.2,10.4-2.2,13.7-6.4v5.2h9.6
	v-43.8H296.7z M283.9,298.7c-7.3,0-13.2-5.9-13.2-13.1c0-0.3,0-0.7,0-1c-0.6-7.3,4.8-13.7,12-14.3c7.3-0.6,13.7,4.8,14.3,12
	c0.1,0.7,0.1,1.5,0,2.2c0.6,7.2-4.8,13.5-12,14.1C284.7,298.7,284.3,298.7,283.9,298.7z M342.7,242.5h-25.5v64.1h25.5
	c20.1,0,33.3-12.8,33.3-32.1C376,255.3,363.1,242.5,342.7,242.5z M342.7,296.8h-15.1v-44.4h15.1c15.1,0,22.4,9.1,22.4,22.2
	C365.2,287.7,357.8,296.8,342.7,296.8z M404.6,261.7c-12.7,0.3-22.7,10.9-22.4,23.6c0.3,12.7,10.9,22.7,23.6,22.4
	c12.5-0.3,22.4-10.6,22.4-23c0.2-12.5-9.8-22.8-22.3-23C405.5,261.6,405,261.7,404.6,261.7z M404.6,298.7
	c-7.5,0.1-13.6-5.9-13.7-13.3c0-0.3,0-0.5,0-0.8c-0.4-7.6,5.3-14.1,12.9-14.6c7.6-0.4,14.1,5.3,14.6,12.9c0,0.5,0,1.1,0,1.6
	c0.4,7.4-5.3,13.7-12.7,14.1C405.3,298.7,405,298.7,404.6,298.7z M473.5,268.6l-6.2,6.6c-2.8-2.8-6.5-4.4-10.5-4.4
	c-7.2,0.1-13.1,6-13,13.2c0,0.3,0,0.6,0,0.9c-0.5,7.2,4.9,13.5,12.2,14.1c0.3,0,0.5,0,0.8,0c4.1-0.1,8-1.8,10.8-4.8l5.8,6.7
	c-4.2,4.6-10.2,7.2-16.5,7c-12.1,0.6-22.4-8.8-23-20.9c0-0.7,0-1.4,0-2.1c-0.5-12.2,8.9-22.4,21-23c0.7,0,1.3,0,2,0
	C463.3,261.4,469.4,263.9,473.5,268.6z"/>
</svg>
