<svg xmlns="http://www.w3.org/2000/svg" xmlns:xlink="http://www.w3.org/1999/xlink" id="Layer_1" x="0px" y="0px" viewBox="0 0 658.6 630.7" style="enable-background:new 0 0 658.6 630.7;" xml:space="preserve"><style type="text/css">	.st0{fill:#2CA01C;}	.st1{fill:#FFFFFF;}	.st2{fill-rule:evenodd;clip-rule:evenodd;fill:#282828;}</style><g>	<ellipse class="st0" cx="331" cy="248.6" rx="232.1" ry="233"></ellipse>	<path class="st1" d="M163.3,248.6c0,50,40.4,90.6,90.3,90.6h12.9v-33.7h-12.9c-31.3,0-56.7-25.5-56.7-57c0-31.4,25.4-57,56.7-57h31  v176.1c0,18.6,15,33.7,33.5,33.7V158h-64.5C203.7,158,163.3,198.5,163.3,248.6z"></path>	<path class="st1" d="M408.3,158h-12.9v33.7h12.9c31.3,0,56.7,25.6,56.7,57c0,31.4-25.5,57-56.7,57h-31V129.5  c0-18.6-15-33.7-33.5-33.7v243.4h64.5c49.8,0,90.3-40.6,90.3-90.6C498.6,198.6,458.2,158,408.3,158z"></path></g><g>	<path class="st2" d="M82.5,474.1c0,2.5-2,4.5-4.5,4.5c-2.5,0-4.5-2-4.5-4.5c0-2.5,2-4.5,4.5-4.5C80.5,469.6,82.5,471.6,82.5,474.1z   M42.3,487.2c1.3-3,4.8-5.6,9.2-5.6l0,0c7.7,0,10.9,5.9,10.9,12v18.5H55v-16.4c0-3.5-0.8-7.9-5.5-7.9c-4.7,0-6.9,4.1-6.9,8v16.3  h-7.4v-29.7h7v4.8H42.3z M20.2,512.1h7.4v-29.7h-7.4V512.1z M158.9,474.1c0,2.5-2,4.5-4.5,4.5l0,0c-2.5,0-4.5-2-4.5-4.5  c0-2.5,2-4.5,4.5-4.5C156.9,469.6,158.9,471.6,158.9,474.1z M142.5,482.5v6.6h8.3v23.1h7.4V489h8.3v-6.6H142.5z M137.3,512.1h-7.4  v-29.7h7.4V512.1z M66.1,489h8.3v23.1h7.4V489H90v-6.6H66.1L66.1,489L66.1,489z M108.1,506.8c4.7,0,6.9-4.1,6.9-8h0v-16.3h7.4v29.7  h-7v-4.8h-0.1c-1.3,3-4.8,5.6-9.2,5.6c-7.7,0-10.9-5.9-10.9-12v-18.5h7.4v16.4C102.6,502.4,103.4,506.8,108.1,506.8z"></path>	<path class="st2" d="M579.3,529.2h-20.7l-20.7,24.2h-0.4V497h-16v90.4h16v-28.7h0.4l21.5,28.7h21.1l-25-31.9L579.3,529.2z   M59.3,536.6h0.4v-7.4h15.4v87H59v-35.7h-0.2c-4.1,4.6-11.1,8.6-18.7,8.6c-16.5,0-28.2-13-28.2-31c0-17.7,12.6-30.5,28.9-30.5  C50.9,527.5,57,534.1,59.3,536.6z M214,575.4c-9.8,0-14.7-8.8-14.7-17.2c0-8.5,5.3-16.8,14.2-16.8c4.2,0,9.4,2.1,11.5,5l10.3-10.3  c-5-5.3-13-8.4-21.8-8.4c-18,0-31,12.9-31,30.8c0,18.1,12.9,30.8,31.4,30.8c8.8,0,16.9-2.6,21.7-7.8l-10.1-10.8  C223.3,573.3,218.4,575.4,214,575.4L214,575.4z M643.3,574.2c-3.7,0-6.7,3-6.7,6.7c0,3.7,3,6.6,6.7,6.6c3.7,0,6.7-2.9,6.7-6.6  C650,577.2,647,574.2,643.3,574.2z M643.3,577.1c1.4,0,2.8,0.6,2.8,2.2l0,0c0,1.1-0.7,1.8-1.7,2l2,3.3h-1.6l-1.8-3.1h-1v3.1h-1.3  v-7.5H643.3z M642,578.2v2.1l0,0h1.1c0.8,0,1.6-0.2,1.6-1.1c0-0.8-0.8-1-1.5-1H642z M637.7,580.9c0,3.1,2.5,5.6,5.6,5.6v0  c3.1,0,5.6-2.6,5.6-5.6c0-3.1-2.5-5.6-5.6-5.6C640.2,575.2,637.7,577.8,637.7,580.9z M172.3,587.5h-16v-58.3h16V587.5z   M127.1,561.1c0,6.8-4.4,14.2-12.7,14.2c-6.4,0-9.8-4.6-9.8-14v-32.2h-16v36.2c0,12,6,23.8,22,23.8c7.5,0,13.9-6,17-10.4h0.2v8.7  h15.3v-58.3h-16L127.1,561.1L127.1,561.1z M44,575.3c-9.9,0-15.5-8.7-15.5-17.3c0-8.2,5.2-17,15.5-17c9.5,0,15.4,9,15.4,17.3  C59.5,566.7,53.7,575.3,44,575.3L44,575.3z M377.7,558.1c0-17.7,13.2-30.5,31.5-30.6c18.2,0,31.5,12.8,31.5,30.6  c0,18.2-13.5,31.2-31.5,31.2C391.3,589.3,377.7,576.4,377.7,558.1z M409.2,575.3c-10.5,0-15.2-8.9-15.2-17.3c0-8.2,4.8-17,15.2-17  s15.2,8.8,15.2,17C424.4,566.4,419.7,575.3,409.2,575.3L409.2,575.3z M598.5,545.2c0,3.4,2.9,4.4,11.2,6.4v0  c8.1,1.9,19.5,5.9,19.5,17.8c0,12.4-9.3,19.9-25,19.9c-9.3,0-18.4-3.6-23.7-9.5l9.7-9.9c3.3,3.9,9.4,6.9,14.6,6.9  c2.1,0,8.2-0.9,8.2-6.3c0-3.7-3.2-5.2-12.3-7.3c-8.6-2.1-17.4-5.5-17.4-16.7c0-13.1,12.2-18.9,23.8-18.9c9.1,0,17.7,3.2,22,8.7  l-9.5,9.1c-2.1-2.8-7.7-5.8-12.7-5.8C604.3,539.6,598.5,540.6,598.5,545.2z M323.8,535.5c5.1-4.8,10.5-8,17.8-8v0  c16.3,0,28.7,12.8,28.7,30.6c0,18-12.5,31-29.1,31c-7.4,0-14.6-3.9-18.2-9.9h-0.2v8.2h-15.3V497h16v38.5H323.8z M338.4,575.3  c-9.7,0-15.4-8.7-15.4-17c0-8.3,5.9-17.3,15.4-17.3c10.4,0,15.5,8.8,15.5,17C354,566.7,348.4,575.3,338.4,575.3L338.4,575.3z   M280.7,529.2h20.7l-23.8,26.4l25,31.9h-21.1L260,558.7h-0.4v28.7h-16V497h16v56.3h0.4L280.7,529.2z M479.6,527.5  c-18.2,0-31.5,12.8-31.5,30.6c0,18.3,13.5,31.2,31.5,31.2c17.9,0,31.5-13,31.5-31.2C511.1,540.4,497.9,527.5,479.6,527.5  L479.6,527.5z M464.4,558.1c0,8.3,4.8,17.3,15.2,17.3l0,0c10.5,0,15.2-8.9,15.2-17.3c0-8.2-4.8-17-15.2-17  C469.2,541,464.4,549.9,464.4,558.1z"></path></g></svg>