<?xml version="1.0" encoding="UTF-8" standalone="no"?>
<svg
   fill="none"
   height="200"
   viewBox="0 0 42.666667 200"
   width="200"
   version="1.1"
   id="svg139"
   xmlns:xlink="http://www.w3.org/1999/xlink"
   xmlns="http://www.w3.org/2000/svg"
   xmlns:svg="http://www.w3.org/2000/svg">
  <defs
     id="defs143">
    <linearGradient
       id="linearGradient546"
       gradientUnits="userSpaceOnUse"
       x1="16"
       x2="16"
       y1="28.188"
       y2="3.81201"
       gradientTransform="matrix(8.204795,0,0,8.204795,-109.94343,-31.27676)"
       spreadMethod="pad">
      <stop
         offset="0"
         stop-color="#0052cc"
         id="stop542" />
      <stop
         offset="1"
         stop-color="#2684ff"
         id="stop544" />
    </linearGradient>
    <linearGradient
       id="linearGradient540"
       gradientUnits="userSpaceOnUse"
       x1="16"
       x2="16"
       y1="28.188"
       y2="3.81201"
       gradientTransform="matrix(8.204795,0,0,8.204795,-109.94343,-31.27676)">
      <stop
         offset="0"
         stop-color="#0052cc"
         id="stop536" />
      <stop
         offset="1"
         stop-color="#2684ff"
         id="stop538" />
    </linearGradient>
  </defs>
  <linearGradient
     id="a"
     gradientUnits="userSpaceOnUse"
     x1="16"
     x2="16"
     y1="28.188"
     y2="3.81201"
     gradientTransform="matrix(8.204795,0,0,8.204795,-109.94343,-31.27676)"
     xlink:href="#linearGradient546">
    <stop
       offset="0"
       stop-color="#0052cc"
       id="stop132" />
    <stop
       offset="1"
       stop-color="#2684ff"
       id="stop134" />
  </linearGradient>
  <path
     clip-rule="evenodd"
     d="M 97.539423,0 H -54.872762 c -6.307846,0.0087 -12.354862,2.5182977 -16.815234,6.97867 -4.460373,4.460373 -6.969974,10.507389 -6.978671,16.815235 V 176.20609 c 0.0087,6.30785 2.518298,12.35478 6.978671,16.81573 4.460372,4.46013 10.507388,6.96998 16.815234,6.97818 H 97.539423 c 6.307847,-0.008 12.354777,-2.51805 16.815727,-6.97818 4.46013,-4.46095 6.96998,-10.50788 6.97818,-16.81573 V 23.793905 C 121.32513,17.486059 118.81528,11.439043 114.35515,6.97867 109.8942,2.5182977 103.84727,0.0086971 97.539423,0 Z M 7.4835985,144.0433 c 0,2.09796 -0.833607,4.10978 -2.316214,5.59321 -1.483426,1.4826 -3.495242,2.31621 -5.593208,2.31621 H -33.835667 c -2.09772,0 -4.109454,-0.83361 -5.592799,-2.31621 -1.483263,-1.48343 -2.316624,-3.49525 -2.316624,-5.59321 V 44.831 c 0,-2.09772 0.833361,-4.109454 2.316624,-5.592799 1.483345,-1.483263 3.495079,-2.316624 5.592799,-2.316624 h 33.4098435 c 2.097966,0 4.109782,0.833361 5.593208,2.316624 1.482607,1.483345 2.316214,3.495079 2.316214,5.592799 z M 84.411753,98.49028 c 0.0222,1.05267 -0.16655,2.09878 -0.55382,3.07762 -0.38809,0.97801 -0.96735,1.86987 -1.70414,2.62143 -0.73679,0.75238 -1.61552,1.34969 -2.58615,1.75746 -0.97063,0.40778 -2.01263,0.617 -3.06531,0.617 h -33.40992 c -2.09797,0 -4.10979,-0.8336 -5.59239,-2.31621 -1.48343,-1.48343 -2.31704,-3.49524 -2.31704,-5.59321 V 44.831 c 0,-2.09772 0.83361,-4.109454 2.31704,-5.592799 1.4826,-1.483263 3.49442,-2.316624 5.59239,-2.316624 h 33.40992 c 2.09797,0 4.10978,0.833361 5.59321,2.316624 1.48261,1.483345 2.31621,3.495079 2.31621,5.592799 z"
     fill="url(#a)"
     fill-rule="evenodd"
     id="path137"
     style="fill:url(#a);stroke-width:8.20479" />
  <path
     clip-rule="evenodd"
     d="m 7.4835985,144.0433 c 0,2.09796 -0.833607,4.10978 -2.316214,5.59321 -1.483426,1.4826 -3.495242,2.31621 -5.593208,2.31621 H -33.835667 c -2.09772,0 -4.109454,-0.83361 -5.592799,-2.31621 -1.483263,-1.48343 -2.316624,-3.49525 -2.316624,-5.59321 V 44.831 c 0,-2.09772 0.833361,-4.109454 2.316624,-5.592799 1.483345,-1.483263 3.495079,-2.316624 5.592799,-2.316624 h 33.4098435 c 2.097966,0 4.109782,0.833361 5.593208,2.316624 1.482607,1.483345 2.316214,3.495079 2.316214,5.592799 z M 84.411753,98.49028 c 0.0222,1.05267 -0.16655,2.09878 -0.55382,3.07762 -0.38809,0.97801 -0.96735,1.86987 -1.70414,2.62143 -0.73679,0.75238 -1.61552,1.34969 -2.58615,1.75746 -0.97063,0.40778 -2.01263,0.617 -3.06531,0.617 h -33.40992 c -2.09797,0 -4.10979,-0.8336 -5.59239,-2.31621 -1.48343,-1.48343 -2.31704,-3.49524 -2.31704,-5.59321 V 44.831 c 0,-2.09772 0.83361,-4.109454 2.31704,-5.592799 1.4826,-1.483263 3.49442,-2.316624 5.59239,-2.316624 h 33.40992 c 2.09797,0 4.10978,0.833361 5.59321,2.316624 1.48261,1.483345 2.31621,3.495079 2.31621,5.592799 z"
     fill-rule="evenodd"
     id="path534"
     style="stroke-width:8.20479;fill-opacity:1;fill:#ffffff" />
</svg>
