<svg xmlns="http://www.w3.org/2000/svg" viewBox="0 0 1256.45161 298.3871"><defs><style>.a{fill:#03363d;}.b{fill:none;}</style></defs><title>zendesk-logo-freelogovectors.net</title><path class="a" d="M838.97148,483.87363c19.93037,0,34.21381-8.30432,42.85027-16.60864l21.259,22.9199C889.12949,504.80047,869.53132,515.43,838.97143,515.43c-52.15112,0-85.70059-34.54595-85.70059-81.38233,0-46.50419,35.54248-81.38233,81.05014-81.38233,51.819,0,81.05014,39.1964,78.3928,94.00491H790.80643c4.31825,22.91995,20.26256,37.20334,48.16505,37.20334m37.20334-63.11283c-3.32172-21.259-15.9443-36.8712-41.1894-36.8712-23.58429,0-39.86074,13.28691-44.179,36.8712Z" transform="translate(-11.77419 -250.80645)"/><polygon class="a" points="25 231.406 119.005 135.741 27.325 135.741 27.325 105.845 162.52 105.845 162.52 136.405 68.515 232.071 163.848 232.071 163.848 261.966 25 261.966 25 231.406"/><path class="a" d="M281.25336,483.87363c19.93037,0,34.21381-8.30432,42.8503-16.60864l21.25906,22.9199C331.41147,504.80047,311.81327,515.43,281.25339,515.43c-52.15113,0-85.70058-34.54595-85.70058-81.38233,0-46.50419,35.54249-81.38233,81.05015-81.38233,51.819,0,81.05017,39.1964,78.39278,94.00491H233.08831c4.31825,22.91995,20.26253,37.20334,48.165,37.20334m37.20337-63.11283c-3.32173-21.259-15.9443-36.8712-41.18943-36.8712-23.58426,0-39.86074,13.28691-44.179,36.8712Z" transform="translate(-11.77419 -250.80645)"/><path class="a" d="M558.28547,434.3799c0-49.82591,37.20335-81.05014,78.3928-81.05014,20.5947,0,40.52507,8.96866,52.15112,23.58429V284.9022h33.21728V512.7727H688.82939V490.84928C676.87115,506.12925,657.273,515.43,636.34608,515.43c-39.86074,0-78.06061-31.55641-78.06061-81.05014m132.20478-.33219c0-27.90249-20.92689-50.49025-49.49372-50.49025-27.9025,0-49.49373,22.25556-49.49373,50.49025s21.59123,50.82245,49.49373,50.82245c28.56683,0,49.49372-22.9199,49.49372-50.82245" transform="translate(-11.77419 -250.80645)"/><path class="a" d="M934.6372,479.22323,964.865,463.61112c8.63651,14.28344,22.25562,22.9199,40.19293,22.9199,18.93389,0,28.56688-9.633,28.56688-20.5947,0-12.62258-18.26951-15.28-37.86768-19.266-26.57383-5.64693-54.14413-14.28344-54.14413-46.50419,0-24.58077,23.58429-47.50072,60.45549-47.16853,29.23117,0,50.8224,11.62605,63.11283,30.22774l-27.90249,15.28c-7.30784-10.96171-19.266-17.93731-35.21034-17.93731-17.93731,0-26.906,8.63652-26.906,18.6017,0,11.29385,14.28339,14.28344,36.8712,19.266,25.57734,5.64693,54.80851,13.95125,54.80851,46.50419,0,21.59123-18.93389,50.49026-63.445,50.15806-32.553.33209-55.473-12.62262-68.75991-35.87472" transform="translate(-11.77419 -250.80645)"/><polygon class="a" points="1145.087 192.21 1118.845 221.109 1118.845 261.634 1085.628 261.634 1085.628 33.764 1118.845 33.764 1118.845 182.909 1189.266 105.513 1229.791 105.513 1168.671 172.28 1231.452 261.634 1193.584 261.634 1145.087 192.21"/><path class="a" d="M457.9693,352.99757c-39.52857,0-72.41368,25.5773-72.41368,68.09542v91.34752h33.88162V425.41125c0-25.5773,14.61561-40.85726,39.86073-40.85726s37.53554,15.28,37.53554,40.85726v87.02926h33.88161V421.093c-.33214-42.51812-33.21728-68.09542-72.74582-68.09542" transform="translate(-11.77419 -250.80645)"/><rect class="b" width="1256.45161" height="298.3871"/></svg>